<mxfile host="Electron" agent="Mozilla/5.0 (Windows NT 10.0; Win64; x64) AppleWebKit/537.36 (KHTML, like Gecko) draw.io/24.7.8 Chrome/128.0.6613.36 Electron/32.0.1 Safari/537.36" scale="1" border="0" version="24.7.8" pages="2">
  <diagram name="PÃ¡gina-1" id="jAJtv3heM20pbduXRPPp">
    <mxGraphModel dx="3400" dy="2174" grid="1" gridSize="10" guides="1" tooltips="1" connect="1" arrows="1" fold="1" page="0" pageScale="1" pageWidth="827" pageHeight="1169" math="0" shadow="0">
      <root>
        <mxCell id="0" />
        <mxCell id="1" parent="0" />
        <mxCell id="lBxiZ__qS_R0_bR5SqGW-3" value="USER" style="rounded=1;arcSize=10;whiteSpace=wrap;html=1;align=center;fillColor=#fff2cc;strokeColor=#d6b656;" parent="1" vertex="1">
          <mxGeometry x="-120" y="180" width="100" height="40" as="geometry" />
        </mxCell>
        <mxCell id="lBxiZ__qS_R0_bR5SqGW-4" value="make" style="shape=rhombus;perimeter=rhombusPerimeter;whiteSpace=wrap;html=1;align=center;fillColor=#d5e8d4;strokeColor=#82b366;" parent="1" vertex="1">
          <mxGeometry x="100" y="170" width="120" height="60" as="geometry" />
        </mxCell>
        <mxCell id="lBxiZ__qS_R0_bR5SqGW-6" value="" style="endArrow=none;html=1;rounded=0;exitX=1;exitY=0.5;exitDx=0;exitDy=0;entryX=0;entryY=0.5;entryDx=0;entryDy=0;" parent="1" source="lBxiZ__qS_R0_bR5SqGW-3" target="lBxiZ__qS_R0_bR5SqGW-4" edge="1">
          <mxGeometry width="50" height="50" relative="1" as="geometry">
            <mxPoint x="100" y="280" as="sourcePoint" />
            <mxPoint x="150" y="230" as="targetPoint" />
            <Array as="points">
              <mxPoint x="40" y="200" />
            </Array>
          </mxGeometry>
        </mxCell>
        <mxCell id="lBxiZ__qS_R0_bR5SqGW-7" value="1,N" style="edgeLabel;html=1;align=center;verticalAlign=middle;resizable=0;points=[];fontSize=12;spacingLeft=5;spacingRight=5;" parent="lBxiZ__qS_R0_bR5SqGW-6" vertex="1" connectable="0">
          <mxGeometry x="-0.2383" y="-1" relative="1" as="geometry">
            <mxPoint x="14" y="-1" as="offset" />
          </mxGeometry>
        </mxCell>
        <mxCell id="lBxiZ__qS_R0_bR5SqGW-8" value="" style="endArrow=none;html=1;rounded=0;exitX=1;exitY=0.5;exitDx=0;exitDy=0;entryX=0;entryY=0.5;entryDx=0;entryDy=0;" parent="1" source="lBxiZ__qS_R0_bR5SqGW-4" target="lBxiZ__qS_R0_bR5SqGW-10" edge="1">
          <mxGeometry width="50" height="50" relative="1" as="geometry">
            <mxPoint x="220" y="199.63" as="sourcePoint" />
            <mxPoint x="340" y="199.63" as="targetPoint" />
            <Array as="points">
              <mxPoint x="280" y="199.63" />
            </Array>
          </mxGeometry>
        </mxCell>
        <mxCell id="lBxiZ__qS_R0_bR5SqGW-9" value="1,M" style="edgeLabel;html=1;align=center;verticalAlign=middle;resizable=0;points=[];fontSize=12;spacingLeft=5;spacingRight=5;" parent="lBxiZ__qS_R0_bR5SqGW-8" vertex="1" connectable="0">
          <mxGeometry x="-0.2383" y="-1" relative="1" as="geometry">
            <mxPoint x="14" y="-1" as="offset" />
          </mxGeometry>
        </mxCell>
        <mxCell id="lBxiZ__qS_R0_bR5SqGW-10" value="ORDERS" style="rounded=1;arcSize=10;whiteSpace=wrap;html=1;align=center;fillColor=#fff2cc;strokeColor=#d6b656;" parent="1" vertex="1">
          <mxGeometry x="340" y="180" width="100" height="40" as="geometry" />
        </mxCell>
        <mxCell id="lBxiZ__qS_R0_bR5SqGW-12" value="" style="endArrow=none;html=1;rounded=0;exitX=0.5;exitY=0;exitDx=0;exitDy=0;entryX=0.5;entryY=1;entryDx=0;entryDy=0;" parent="1" source="lBxiZ__qS_R0_bR5SqGW-11" target="lBxiZ__qS_R0_bR5SqGW-10" edge="1">
          <mxGeometry width="50" height="50" relative="1" as="geometry">
            <mxPoint x="300" y="260.37" as="sourcePoint" />
            <mxPoint x="420" y="260" as="targetPoint" />
            <Array as="points" />
          </mxGeometry>
        </mxCell>
        <mxCell id="lBxiZ__qS_R0_bR5SqGW-13" value="1,1" style="edgeLabel;html=1;align=center;verticalAlign=middle;resizable=0;points=[];fontSize=12;spacingLeft=5;spacingRight=5;" parent="lBxiZ__qS_R0_bR5SqGW-12" vertex="1" connectable="0">
          <mxGeometry x="-0.2383" y="-1" relative="1" as="geometry">
            <mxPoint x="-1" y="-9" as="offset" />
          </mxGeometry>
        </mxCell>
        <mxCell id="lBxiZ__qS_R0_bR5SqGW-11" value="make" style="shape=rhombus;perimeter=rhombusPerimeter;whiteSpace=wrap;html=1;align=center;fillColor=#d5e8d4;strokeColor=#82b366;" parent="1" vertex="1">
          <mxGeometry x="330" y="300" width="120" height="60" as="geometry" />
        </mxCell>
        <mxCell id="lBxiZ__qS_R0_bR5SqGW-14" value="" style="endArrow=none;html=1;rounded=0;exitX=0.5;exitY=0;exitDx=0;exitDy=0;entryX=0.5;entryY=1;entryDx=0;entryDy=0;" parent="1" source="lBxiZ__qS_R0_bR5SqGW-16" target="lBxiZ__qS_R0_bR5SqGW-11" edge="1">
          <mxGeometry width="50" height="50" relative="1" as="geometry">
            <mxPoint x="389.55" y="440" as="sourcePoint" />
            <mxPoint x="389.55" y="360" as="targetPoint" />
            <Array as="points" />
          </mxGeometry>
        </mxCell>
        <mxCell id="lBxiZ__qS_R0_bR5SqGW-15" value="1,N" style="edgeLabel;html=1;align=center;verticalAlign=middle;resizable=0;points=[];fontSize=12;spacingLeft=5;spacingRight=5;" parent="lBxiZ__qS_R0_bR5SqGW-14" vertex="1" connectable="0">
          <mxGeometry x="-0.2383" y="-1" relative="1" as="geometry">
            <mxPoint x="-1" y="-9" as="offset" />
          </mxGeometry>
        </mxCell>
        <mxCell id="lBxiZ__qS_R0_bR5SqGW-16" value="SHIPMENTS" style="rounded=1;arcSize=10;whiteSpace=wrap;html=1;align=center;fillColor=#fff2cc;strokeColor=#d6b656;" parent="1" vertex="1">
          <mxGeometry x="340" y="440" width="100" height="40" as="geometry" />
        </mxCell>
        <mxCell id="lBxiZ__qS_R0_bR5SqGW-18" value="have" style="shape=rhombus;perimeter=rhombusPerimeter;whiteSpace=wrap;html=1;align=center;fillColor=#d5e8d4;strokeColor=#82b366;" parent="1" vertex="1">
          <mxGeometry x="560" y="170" width="120" height="60" as="geometry" />
        </mxCell>
        <mxCell id="lBxiZ__qS_R0_bR5SqGW-19" value="" style="endArrow=none;html=1;rounded=0;exitX=1;exitY=0.5;exitDx=0;exitDy=0;entryX=0;entryY=0.5;entryDx=0;entryDy=0;" parent="1" target="lBxiZ__qS_R0_bR5SqGW-18" edge="1">
          <mxGeometry width="50" height="50" relative="1" as="geometry">
            <mxPoint x="440" y="200" as="sourcePoint" />
            <mxPoint x="610" y="230" as="targetPoint" />
            <Array as="points">
              <mxPoint x="500" y="200" />
            </Array>
          </mxGeometry>
        </mxCell>
        <mxCell id="lBxiZ__qS_R0_bR5SqGW-20" value="1,1" style="edgeLabel;html=1;align=center;verticalAlign=middle;resizable=0;points=[];fontSize=12;spacingLeft=5;spacingRight=5;" parent="lBxiZ__qS_R0_bR5SqGW-19" vertex="1" connectable="0">
          <mxGeometry x="-0.2383" y="-1" relative="1" as="geometry">
            <mxPoint x="14" y="-1" as="offset" />
          </mxGeometry>
        </mxCell>
        <mxCell id="lBxiZ__qS_R0_bR5SqGW-21" value="" style="endArrow=none;html=1;rounded=0;exitX=1;exitY=0.5;exitDx=0;exitDy=0;entryX=0;entryY=0.5;entryDx=0;entryDy=0;" parent="1" source="lBxiZ__qS_R0_bR5SqGW-18" edge="1">
          <mxGeometry width="50" height="50" relative="1" as="geometry">
            <mxPoint x="680" y="199.63" as="sourcePoint" />
            <mxPoint x="800" y="200" as="targetPoint" />
            <Array as="points">
              <mxPoint x="740" y="199.63" />
            </Array>
          </mxGeometry>
        </mxCell>
        <mxCell id="lBxiZ__qS_R0_bR5SqGW-22" value="1,N" style="edgeLabel;html=1;align=center;verticalAlign=middle;resizable=0;points=[];fontSize=12;spacingLeft=5;spacingRight=5;" parent="lBxiZ__qS_R0_bR5SqGW-21" vertex="1" connectable="0">
          <mxGeometry x="-0.2383" y="-1" relative="1" as="geometry">
            <mxPoint x="14" y="-1" as="offset" />
          </mxGeometry>
        </mxCell>
        <mxCell id="lBxiZ__qS_R0_bR5SqGW-24" value="ORDER_DETAILS" style="rounded=1;arcSize=10;whiteSpace=wrap;html=1;align=center;fillColor=#fff2cc;strokeColor=#d6b656;" parent="1" vertex="1">
          <mxGeometry x="800" y="180" width="110" height="40" as="geometry" />
        </mxCell>
        <mxCell id="lBxiZ__qS_R0_bR5SqGW-29" value="have" style="shape=rhombus;perimeter=rhombusPerimeter;whiteSpace=wrap;html=1;align=center;fillColor=#d5e8d4;strokeColor=#82b366;" parent="1" vertex="1">
          <mxGeometry x="1030" y="170" width="120" height="60" as="geometry" />
        </mxCell>
        <mxCell id="lBxiZ__qS_R0_bR5SqGW-30" value="" style="endArrow=none;html=1;rounded=0;exitX=1;exitY=0.5;exitDx=0;exitDy=0;entryX=0;entryY=0.5;entryDx=0;entryDy=0;" parent="1" target="lBxiZ__qS_R0_bR5SqGW-29" edge="1">
          <mxGeometry width="50" height="50" relative="1" as="geometry">
            <mxPoint x="910" y="200" as="sourcePoint" />
            <mxPoint x="1080" y="230" as="targetPoint" />
            <Array as="points">
              <mxPoint x="970" y="200" />
            </Array>
          </mxGeometry>
        </mxCell>
        <mxCell id="lBxiZ__qS_R0_bR5SqGW-31" value="0,1" style="edgeLabel;html=1;align=center;verticalAlign=middle;resizable=0;points=[];fontSize=12;spacingLeft=5;spacingRight=5;" parent="lBxiZ__qS_R0_bR5SqGW-30" vertex="1" connectable="0">
          <mxGeometry x="-0.2383" y="-1" relative="1" as="geometry">
            <mxPoint x="14" y="-1" as="offset" />
          </mxGeometry>
        </mxCell>
        <mxCell id="lBxiZ__qS_R0_bR5SqGW-32" value="" style="endArrow=none;html=1;rounded=0;exitX=1;exitY=0.5;exitDx=0;exitDy=0;entryX=0;entryY=0.5;entryDx=0;entryDy=0;" parent="1" source="lBxiZ__qS_R0_bR5SqGW-29" edge="1">
          <mxGeometry width="50" height="50" relative="1" as="geometry">
            <mxPoint x="1150" y="199.63" as="sourcePoint" />
            <mxPoint x="1270" y="200" as="targetPoint" />
            <Array as="points">
              <mxPoint x="1210" y="199.63" />
            </Array>
          </mxGeometry>
        </mxCell>
        <mxCell id="lBxiZ__qS_R0_bR5SqGW-33" value="1,N" style="edgeLabel;html=1;align=center;verticalAlign=middle;resizable=0;points=[];fontSize=12;spacingLeft=5;spacingRight=5;" parent="lBxiZ__qS_R0_bR5SqGW-32" vertex="1" connectable="0">
          <mxGeometry x="-0.2383" y="-1" relative="1" as="geometry">
            <mxPoint x="14" y="-1" as="offset" />
          </mxGeometry>
        </mxCell>
        <mxCell id="lBxiZ__qS_R0_bR5SqGW-34" value="PRODUCTS" style="rounded=1;arcSize=10;whiteSpace=wrap;html=1;align=center;fillColor=#fff2cc;strokeColor=#d6b656;" parent="1" vertex="1">
          <mxGeometry x="1270" y="180" width="100" height="40" as="geometry" />
        </mxCell>
        <mxCell id="lBxiZ__qS_R0_bR5SqGW-35" value="have" style="shape=rhombus;perimeter=rhombusPerimeter;whiteSpace=wrap;html=1;align=center;fillColor=#d5e8d4;strokeColor=#82b366;" parent="1" vertex="1">
          <mxGeometry x="1490" y="170" width="120" height="60" as="geometry" />
        </mxCell>
        <mxCell id="lBxiZ__qS_R0_bR5SqGW-36" value="" style="endArrow=none;html=1;rounded=0;exitX=1;exitY=0.5;exitDx=0;exitDy=0;entryX=0;entryY=0.5;entryDx=0;entryDy=0;" parent="1" target="lBxiZ__qS_R0_bR5SqGW-35" edge="1">
          <mxGeometry width="50" height="50" relative="1" as="geometry">
            <mxPoint x="1370" y="200" as="sourcePoint" />
            <mxPoint x="1540" y="230" as="targetPoint" />
            <Array as="points">
              <mxPoint x="1430" y="200" />
            </Array>
          </mxGeometry>
        </mxCell>
        <mxCell id="lBxiZ__qS_R0_bR5SqGW-37" value="1,N" style="edgeLabel;html=1;align=center;verticalAlign=middle;resizable=0;points=[];fontSize=12;spacingLeft=5;spacingRight=5;" parent="lBxiZ__qS_R0_bR5SqGW-36" vertex="1" connectable="0">
          <mxGeometry x="-0.2383" y="-1" relative="1" as="geometry">
            <mxPoint x="14" y="-1" as="offset" />
          </mxGeometry>
        </mxCell>
        <mxCell id="lBxiZ__qS_R0_bR5SqGW-38" value="" style="endArrow=none;html=1;rounded=0;exitX=1;exitY=0.5;exitDx=0;exitDy=0;entryX=0;entryY=0.5;entryDx=0;entryDy=0;" parent="1" source="lBxiZ__qS_R0_bR5SqGW-35" edge="1">
          <mxGeometry width="50" height="50" relative="1" as="geometry">
            <mxPoint x="1610" y="199.63" as="sourcePoint" />
            <mxPoint x="1730" y="200" as="targetPoint" />
            <Array as="points">
              <mxPoint x="1670" y="199.63" />
            </Array>
          </mxGeometry>
        </mxCell>
        <mxCell id="lBxiZ__qS_R0_bR5SqGW-39" value="1,M" style="edgeLabel;html=1;align=center;verticalAlign=middle;resizable=0;points=[];fontSize=12;spacingLeft=5;spacingRight=5;" parent="lBxiZ__qS_R0_bR5SqGW-38" vertex="1" connectable="0">
          <mxGeometry x="-0.2383" y="-1" relative="1" as="geometry">
            <mxPoint x="14" y="-1" as="offset" />
          </mxGeometry>
        </mxCell>
        <mxCell id="lBxiZ__qS_R0_bR5SqGW-40" value="INGREDIENTS" style="rounded=1;arcSize=10;whiteSpace=wrap;html=1;align=center;fillColor=#fff2cc;strokeColor=#d6b656;" parent="1" vertex="1">
          <mxGeometry x="1730" y="180" width="100" height="40" as="geometry" />
        </mxCell>
        <mxCell id="lBxiZ__qS_R0_bR5SqGW-41" value="" style="endArrow=none;html=1;rounded=0;exitX=0.5;exitY=0;exitDx=0;exitDy=0;entryX=0.5;entryY=1;entryDx=0;entryDy=0;" parent="1" source="lBxiZ__qS_R0_bR5SqGW-43" edge="1">
          <mxGeometry width="50" height="50" relative="1" as="geometry">
            <mxPoint x="1230" y="-9.629999999999995" as="sourcePoint" />
            <mxPoint x="1320" y="-50" as="targetPoint" />
            <Array as="points" />
          </mxGeometry>
        </mxCell>
        <mxCell id="lBxiZ__qS_R0_bR5SqGW-42" value="1,1" style="edgeLabel;html=1;align=center;verticalAlign=middle;resizable=0;points=[];fontSize=12;spacingLeft=5;spacingRight=5;" parent="lBxiZ__qS_R0_bR5SqGW-41" vertex="1" connectable="0">
          <mxGeometry x="-0.2383" y="-1" relative="1" as="geometry">
            <mxPoint x="-1" y="-9" as="offset" />
          </mxGeometry>
        </mxCell>
        <mxCell id="lBxiZ__qS_R0_bR5SqGW-43" value="make" style="shape=rhombus;perimeter=rhombusPerimeter;whiteSpace=wrap;html=1;align=center;fillColor=#d5e8d4;strokeColor=#82b366;" parent="1" vertex="1">
          <mxGeometry x="1260" y="30" width="120" height="60" as="geometry" />
        </mxCell>
        <mxCell id="lBxiZ__qS_R0_bR5SqGW-44" value="" style="endArrow=none;html=1;rounded=0;entryX=0.5;entryY=1;entryDx=0;entryDy=0;" parent="1" target="lBxiZ__qS_R0_bR5SqGW-43" edge="1">
          <mxGeometry width="50" height="50" relative="1" as="geometry">
            <mxPoint x="1320" y="180" as="sourcePoint" />
            <mxPoint x="1319.55" y="90" as="targetPoint" />
            <Array as="points" />
          </mxGeometry>
        </mxCell>
        <mxCell id="lBxiZ__qS_R0_bR5SqGW-45" value="1,N" style="edgeLabel;html=1;align=center;verticalAlign=middle;resizable=0;points=[];fontSize=12;spacingLeft=5;spacingRight=5;" parent="lBxiZ__qS_R0_bR5SqGW-44" vertex="1" connectable="0">
          <mxGeometry x="-0.2383" y="-1" relative="1" as="geometry">
            <mxPoint x="-1" y="-9" as="offset" />
          </mxGeometry>
        </mxCell>
        <mxCell id="lBxiZ__qS_R0_bR5SqGW-46" value="CATEGORIES" style="rounded=1;arcSize=10;whiteSpace=wrap;html=1;align=center;fillColor=#fff2cc;strokeColor=#d6b656;" parent="1" vertex="1">
          <mxGeometry x="1270" y="-90" width="100" height="40" as="geometry" />
        </mxCell>
        <mxCell id="lBxiZ__qS_R0_bR5SqGW-48" value="DISCOUNTS" style="rounded=1;arcSize=10;whiteSpace=wrap;html=1;align=center;fillColor=#fff2cc;strokeColor=#d6b656;" parent="1" vertex="1">
          <mxGeometry x="805" y="-20" width="100" height="40" as="geometry" />
        </mxCell>
        <mxCell id="lBxiZ__qS_R0_bR5SqGW-51" value="have" style="shape=rhombus;perimeter=rhombusPerimeter;whiteSpace=wrap;html=1;align=center;fillColor=#d5e8d4;strokeColor=#82b366;" parent="1" vertex="1">
          <mxGeometry x="1030" y="50" width="120" height="60" as="geometry" />
        </mxCell>
        <mxCell id="lBxiZ__qS_R0_bR5SqGW-55" value="" style="endArrow=none;html=1;rounded=0;exitX=0;exitY=0;exitDx=0;exitDy=0;entryX=1;entryY=1;entryDx=0;entryDy=0;" parent="1" source="lBxiZ__qS_R0_bR5SqGW-34" target="lBxiZ__qS_R0_bR5SqGW-51" edge="1">
          <mxGeometry width="50" height="50" relative="1" as="geometry">
            <mxPoint x="1150" y="150" as="sourcePoint" />
            <mxPoint x="1200" y="100" as="targetPoint" />
          </mxGeometry>
        </mxCell>
        <mxCell id="cFIYYu65W-cfg0NRTtNZ-15" value="0,N" style="edgeLabel;html=1;align=center;verticalAlign=middle;resizable=0;points=[];" parent="lBxiZ__qS_R0_bR5SqGW-55" vertex="1" connectable="0">
          <mxGeometry x="-0.085" relative="1" as="geometry">
            <mxPoint as="offset" />
          </mxGeometry>
        </mxCell>
        <mxCell id="lBxiZ__qS_R0_bR5SqGW-57" value="" style="endArrow=none;html=1;rounded=0;exitX=0;exitY=0;exitDx=0;exitDy=0;entryX=1;entryY=1;entryDx=0;entryDy=0;" parent="1" source="lBxiZ__qS_R0_bR5SqGW-51" target="lBxiZ__qS_R0_bR5SqGW-48" edge="1">
          <mxGeometry width="50" height="50" relative="1" as="geometry">
            <mxPoint x="1090" y="50" as="sourcePoint" />
            <mxPoint x="1030" y="20" as="targetPoint" />
            <Array as="points" />
          </mxGeometry>
        </mxCell>
        <mxCell id="cFIYYu65W-cfg0NRTtNZ-12" value="1,N" style="edgeLabel;html=1;align=center;verticalAlign=middle;resizable=0;points=[];" parent="lBxiZ__qS_R0_bR5SqGW-57" vertex="1" connectable="0">
          <mxGeometry x="0.0198" y="-2" relative="1" as="geometry">
            <mxPoint as="offset" />
          </mxGeometry>
        </mxCell>
        <mxCell id="lBxiZ__qS_R0_bR5SqGW-59" value="have" style="shape=rhombus;perimeter=rhombusPerimeter;whiteSpace=wrap;html=1;align=center;fillColor=#d5e8d4;strokeColor=#82b366;direction=east;" parent="1" vertex="1">
          <mxGeometry x="570" y="50" width="120" height="60" as="geometry" />
        </mxCell>
        <mxCell id="lBxiZ__qS_R0_bR5SqGW-60" value="" style="endArrow=none;html=1;rounded=0;exitX=1;exitY=0;exitDx=0;exitDy=0;entryX=0;entryY=1;entryDx=0;entryDy=0;" parent="1" source="lBxiZ__qS_R0_bR5SqGW-10" target="lBxiZ__qS_R0_bR5SqGW-59" edge="1">
          <mxGeometry width="50" height="50" relative="1" as="geometry">
            <mxPoint x="755" y="140" as="sourcePoint" />
            <mxPoint x="685" y="60" as="targetPoint" />
          </mxGeometry>
        </mxCell>
        <mxCell id="cFIYYu65W-cfg0NRTtNZ-9" value="0,N" style="edgeLabel;html=1;align=center;verticalAlign=middle;resizable=0;points=[];" parent="lBxiZ__qS_R0_bR5SqGW-60" vertex="1" connectable="0">
          <mxGeometry x="0.063" relative="1" as="geometry">
            <mxPoint as="offset" />
          </mxGeometry>
        </mxCell>
        <mxCell id="lBxiZ__qS_R0_bR5SqGW-61" value="" style="endArrow=none;html=1;rounded=0;exitX=1;exitY=0;exitDx=0;exitDy=0;entryX=0;entryY=1;entryDx=0;entryDy=0;" parent="1" source="lBxiZ__qS_R0_bR5SqGW-59" target="lBxiZ__qS_R0_bR5SqGW-48" edge="1">
          <mxGeometry width="50" height="50" relative="1" as="geometry">
            <mxPoint x="575" y="10" as="sourcePoint" />
            <mxPoint x="390" y="-20" as="targetPoint" />
            <Array as="points" />
          </mxGeometry>
        </mxCell>
        <mxCell id="cFIYYu65W-cfg0NRTtNZ-11" value="1,1" style="edgeLabel;html=1;align=center;verticalAlign=middle;resizable=0;points=[];" parent="lBxiZ__qS_R0_bR5SqGW-61" vertex="1" connectable="0">
          <mxGeometry x="0.1157" relative="1" as="geometry">
            <mxPoint as="offset" />
          </mxGeometry>
        </mxCell>
        <mxCell id="lBxiZ__qS_R0_bR5SqGW-62" value="make" style="shape=rhombus;perimeter=rhombusPerimeter;whiteSpace=wrap;html=1;align=center;fillColor=#d5e8d4;strokeColor=#82b366;" parent="1" vertex="1">
          <mxGeometry x="1260" y="420" width="120" height="60" as="geometry" />
        </mxCell>
        <mxCell id="lBxiZ__qS_R0_bR5SqGW-63" value="" style="endArrow=none;html=1;rounded=0;exitX=1;exitY=1;exitDx=0;exitDy=0;entryX=0;entryY=0;entryDx=0;entryDy=0;" parent="1" source="lBxiZ__qS_R0_bR5SqGW-24" target="lBxiZ__qS_R0_bR5SqGW-62" edge="1">
          <mxGeometry width="50" height="50" relative="1" as="geometry">
            <mxPoint x="1140" y="360" as="sourcePoint" />
            <mxPoint x="1310" y="390" as="targetPoint" />
            <Array as="points" />
          </mxGeometry>
        </mxCell>
        <mxCell id="lBxiZ__qS_R0_bR5SqGW-64" value="1,N" style="edgeLabel;html=1;align=center;verticalAlign=middle;resizable=0;points=[];fontSize=12;spacingLeft=5;spacingRight=5;" parent="lBxiZ__qS_R0_bR5SqGW-63" vertex="1" connectable="0">
          <mxGeometry x="-0.2383" y="-1" relative="1" as="geometry">
            <mxPoint x="14" y="-1" as="offset" />
          </mxGeometry>
        </mxCell>
        <mxCell id="lBxiZ__qS_R0_bR5SqGW-65" value="" style="endArrow=none;html=1;rounded=0;exitX=1;exitY=0;exitDx=0;exitDy=0;entryX=0;entryY=1;entryDx=0;entryDy=0;" parent="1" source="lBxiZ__qS_R0_bR5SqGW-62" target="lBxiZ__qS_R0_bR5SqGW-40" edge="1">
          <mxGeometry width="50" height="50" relative="1" as="geometry">
            <mxPoint x="1380" y="359.63" as="sourcePoint" />
            <mxPoint x="1500" y="360" as="targetPoint" />
            <Array as="points" />
          </mxGeometry>
        </mxCell>
        <mxCell id="lBxiZ__qS_R0_bR5SqGW-66" value="1,M" style="edgeLabel;html=1;align=center;verticalAlign=middle;resizable=0;points=[];fontSize=12;spacingLeft=5;spacingRight=5;" parent="lBxiZ__qS_R0_bR5SqGW-65" vertex="1" connectable="0">
          <mxGeometry x="-0.2383" y="-1" relative="1" as="geometry">
            <mxPoint x="14" y="-1" as="offset" />
          </mxGeometry>
        </mxCell>
        <mxCell id="lBxiZ__qS_R0_bR5SqGW-67" value="N,M" style="text;html=1;align=center;verticalAlign=middle;resizable=0;points=[];autosize=1;strokeColor=none;fillColor=none;" parent="1" vertex="1">
          <mxGeometry x="135" y="140" width="50" height="30" as="geometry" />
        </mxCell>
        <mxCell id="lBxiZ__qS_R0_bR5SqGW-68" value="&lt;u&gt;&lt;b&gt;user_id&lt;/b&gt;&lt;/u&gt;" style="ellipse;whiteSpace=wrap;html=1;align=center;fillColor=#e1d5e7;strokeColor=#9673a6;" parent="1" vertex="1">
          <mxGeometry x="-120" y="80" width="100" height="40" as="geometry" />
        </mxCell>
        <mxCell id="lBxiZ__qS_R0_bR5SqGW-69" value="name" style="ellipse;whiteSpace=wrap;html=1;align=center;fillColor=#e1d5e7;strokeColor=#9673a6;" parent="1" vertex="1">
          <mxGeometry x="-230" y="90" width="100" height="40" as="geometry" />
        </mxCell>
        <mxCell id="lBxiZ__qS_R0_bR5SqGW-70" value="email" style="ellipse;whiteSpace=wrap;html=1;align=center;fillColor=#e1d5e7;strokeColor=#9673a6;" parent="1" vertex="1">
          <mxGeometry x="-270" y="150" width="100" height="40" as="geometry" />
        </mxCell>
        <mxCell id="lBxiZ__qS_R0_bR5SqGW-71" value="phone" style="ellipse;whiteSpace=wrap;html=1;align=center;fillColor=#e1d5e7;strokeColor=#9673a6;" parent="1" vertex="1">
          <mxGeometry x="-270" y="210" width="100" height="40" as="geometry" />
        </mxCell>
        <mxCell id="lBxiZ__qS_R0_bR5SqGW-72" value="address" style="ellipse;whiteSpace=wrap;html=1;align=center;fillColor=#e1d5e7;strokeColor=#9673a6;" parent="1" vertex="1">
          <mxGeometry x="-230" y="260" width="100" height="40" as="geometry" />
        </mxCell>
        <mxCell id="lBxiZ__qS_R0_bR5SqGW-73" value="rol" style="ellipse;whiteSpace=wrap;html=1;align=center;fillColor=#e1d5e7;strokeColor=#9673a6;" parent="1" vertex="1">
          <mxGeometry x="-120" y="280" width="100" height="40" as="geometry" />
        </mxCell>
        <mxCell id="lBxiZ__qS_R0_bR5SqGW-76" value="" style="endArrow=none;html=1;rounded=0;exitX=0.5;exitY=1;exitDx=0;exitDy=0;entryX=0.5;entryY=0;entryDx=0;entryDy=0;" parent="1" source="lBxiZ__qS_R0_bR5SqGW-68" target="lBxiZ__qS_R0_bR5SqGW-3" edge="1">
          <mxGeometry width="50" height="50" relative="1" as="geometry">
            <mxPoint x="-10" y="154.78" as="sourcePoint" />
            <mxPoint x="110" y="154.78" as="targetPoint" />
            <Array as="points" />
          </mxGeometry>
        </mxCell>
        <mxCell id="lBxiZ__qS_R0_bR5SqGW-78" value="" style="endArrow=none;html=1;rounded=0;exitX=1;exitY=1;exitDx=0;exitDy=0;entryX=0.25;entryY=0;entryDx=0;entryDy=0;" parent="1" source="lBxiZ__qS_R0_bR5SqGW-69" target="lBxiZ__qS_R0_bR5SqGW-3" edge="1">
          <mxGeometry width="50" height="50" relative="1" as="geometry">
            <mxPoint x="-120.43" y="120" as="sourcePoint" />
            <mxPoint x="-120.43" y="180" as="targetPoint" />
            <Array as="points" />
          </mxGeometry>
        </mxCell>
        <mxCell id="lBxiZ__qS_R0_bR5SqGW-79" value="" style="endArrow=none;html=1;rounded=0;exitX=1;exitY=0.5;exitDx=0;exitDy=0;entryX=0;entryY=0;entryDx=0;entryDy=0;" parent="1" source="lBxiZ__qS_R0_bR5SqGW-70" target="lBxiZ__qS_R0_bR5SqGW-3" edge="1">
          <mxGeometry width="50" height="50" relative="1" as="geometry">
            <mxPoint x="-135" y="134" as="sourcePoint" />
            <mxPoint x="-85" y="190" as="targetPoint" />
            <Array as="points" />
          </mxGeometry>
        </mxCell>
        <mxCell id="lBxiZ__qS_R0_bR5SqGW-80" value="" style="endArrow=none;html=1;rounded=0;entryX=0;entryY=1;entryDx=0;entryDy=0;exitX=1;exitY=0.5;exitDx=0;exitDy=0;" parent="1" source="lBxiZ__qS_R0_bR5SqGW-71" target="lBxiZ__qS_R0_bR5SqGW-3" edge="1">
          <mxGeometry width="50" height="50" relative="1" as="geometry">
            <mxPoint x="-150" y="220" as="sourcePoint" />
            <mxPoint x="-140" y="210" as="targetPoint" />
            <Array as="points" />
          </mxGeometry>
        </mxCell>
        <mxCell id="lBxiZ__qS_R0_bR5SqGW-81" value="" style="endArrow=none;html=1;rounded=0;exitX=1;exitY=0;exitDx=0;exitDy=0;entryX=0.25;entryY=1;entryDx=0;entryDy=0;" parent="1" source="lBxiZ__qS_R0_bR5SqGW-72" target="lBxiZ__qS_R0_bR5SqGW-3" edge="1">
          <mxGeometry width="50" height="50" relative="1" as="geometry">
            <mxPoint x="-150" y="190" as="sourcePoint" />
            <mxPoint x="-100" y="200" as="targetPoint" />
            <Array as="points" />
          </mxGeometry>
        </mxCell>
        <mxCell id="lBxiZ__qS_R0_bR5SqGW-82" value="" style="endArrow=none;html=1;rounded=0;exitX=0.5;exitY=0;exitDx=0;exitDy=0;entryX=0.5;entryY=1;entryDx=0;entryDy=0;" parent="1" source="lBxiZ__qS_R0_bR5SqGW-73" target="lBxiZ__qS_R0_bR5SqGW-3" edge="1">
          <mxGeometry width="50" height="50" relative="1" as="geometry">
            <mxPoint x="-100" y="276" as="sourcePoint" />
            <mxPoint x="-50" y="230" as="targetPoint" />
            <Array as="points" />
          </mxGeometry>
        </mxCell>
        <mxCell id="lBxiZ__qS_R0_bR5SqGW-83" value="&lt;b&gt;&lt;u&gt;order_id&lt;/u&gt;&lt;/b&gt;" style="ellipse;whiteSpace=wrap;html=1;align=center;fillColor=#e1d5e7;strokeColor=#9673a6;" parent="1" vertex="1">
          <mxGeometry x="350" y="50" width="100" height="40" as="geometry" />
        </mxCell>
        <mxCell id="lBxiZ__qS_R0_bR5SqGW-84" value="" style="endArrow=none;html=1;rounded=0;exitX=0.5;exitY=1;exitDx=0;exitDy=0;entryX=0.5;entryY=0;entryDx=0;entryDy=0;" parent="1" source="lBxiZ__qS_R0_bR5SqGW-83" target="lBxiZ__qS_R0_bR5SqGW-10" edge="1">
          <mxGeometry width="50" height="50" relative="1" as="geometry">
            <mxPoint x="400" y="120" as="sourcePoint" />
            <mxPoint x="400" y="180" as="targetPoint" />
            <Array as="points" />
          </mxGeometry>
        </mxCell>
        <mxCell id="lBxiZ__qS_R0_bR5SqGW-85" value="date" style="ellipse;whiteSpace=wrap;html=1;align=center;fillColor=#e1d5e7;strokeColor=#9673a6;" parent="1" vertex="1">
          <mxGeometry x="250" y="70" width="100" height="40" as="geometry" />
        </mxCell>
        <mxCell id="lBxiZ__qS_R0_bR5SqGW-86" value="status" style="ellipse;whiteSpace=wrap;html=1;align=center;fillColor=#e1d5e7;strokeColor=#9673a6;" parent="1" vertex="1">
          <mxGeometry x="210" y="120" width="100" height="40" as="geometry" />
        </mxCell>
        <mxCell id="lBxiZ__qS_R0_bR5SqGW-87" value="" style="endArrow=none;html=1;rounded=0;exitX=1;exitY=1;exitDx=0;exitDy=0;entryX=0.25;entryY=0;entryDx=0;entryDy=0;" parent="1" source="lBxiZ__qS_R0_bR5SqGW-85" target="lBxiZ__qS_R0_bR5SqGW-10" edge="1">
          <mxGeometry width="50" height="50" relative="1" as="geometry">
            <mxPoint x="370" y="110" as="sourcePoint" />
            <mxPoint x="390" y="180" as="targetPoint" />
            <Array as="points" />
          </mxGeometry>
        </mxCell>
        <mxCell id="lBxiZ__qS_R0_bR5SqGW-88" value="" style="endArrow=none;html=1;rounded=0;exitX=1;exitY=0.5;exitDx=0;exitDy=0;entryX=0;entryY=0;entryDx=0;entryDy=0;" parent="1" source="lBxiZ__qS_R0_bR5SqGW-86" target="lBxiZ__qS_R0_bR5SqGW-10" edge="1">
          <mxGeometry width="50" height="50" relative="1" as="geometry">
            <mxPoint x="335" y="120" as="sourcePoint" />
            <mxPoint x="370" y="196" as="targetPoint" />
            <Array as="points" />
          </mxGeometry>
        </mxCell>
        <mxCell id="lBxiZ__qS_R0_bR5SqGW-89" value="&lt;i&gt;user_id&lt;/i&gt;" style="ellipse;whiteSpace=wrap;html=1;align=center;fillColor=#e1d5e7;strokeColor=#9673a6;" parent="1" vertex="1">
          <mxGeometry x="440" y="80" width="100" height="40" as="geometry" />
        </mxCell>
        <mxCell id="lBxiZ__qS_R0_bR5SqGW-90" value="" style="endArrow=none;html=1;rounded=0;exitX=0;exitY=1;exitDx=0;exitDy=0;entryX=0.75;entryY=0;entryDx=0;entryDy=0;" parent="1" source="lBxiZ__qS_R0_bR5SqGW-89" target="lBxiZ__qS_R0_bR5SqGW-10" edge="1">
          <mxGeometry width="50" height="50" relative="1" as="geometry">
            <mxPoint x="435" y="110" as="sourcePoint" />
            <mxPoint x="430" y="160" as="targetPoint" />
            <Array as="points" />
          </mxGeometry>
        </mxCell>
        <mxCell id="lBxiZ__qS_R0_bR5SqGW-91" value="return" style="ellipse;whiteSpace=wrap;html=1;align=center;fillColor=#e1d5e7;strokeColor=#9673a6;" parent="1" vertex="1">
          <mxGeometry x="210" y="230" width="100" height="40" as="geometry" />
        </mxCell>
        <mxCell id="lBxiZ__qS_R0_bR5SqGW-92" value="" style="endArrow=none;html=1;rounded=0;exitX=1;exitY=0;exitDx=0;exitDy=0;entryX=0;entryY=1;entryDx=0;entryDy=0;" parent="1" source="lBxiZ__qS_R0_bR5SqGW-91" target="lBxiZ__qS_R0_bR5SqGW-10" edge="1">
          <mxGeometry width="50" height="50" relative="1" as="geometry">
            <mxPoint x="310" y="250" as="sourcePoint" />
            <mxPoint x="340" y="290" as="targetPoint" />
            <Array as="points" />
          </mxGeometry>
        </mxCell>
        <mxCell id="lBxiZ__qS_R0_bR5SqGW-94" value="address" style="ellipse;whiteSpace=wrap;html=1;align=center;fillColor=#e1d5e7;strokeColor=#9673a6;" parent="1" vertex="1">
          <mxGeometry x="185" y="440" width="100" height="40" as="geometry" />
        </mxCell>
        <mxCell id="lBxiZ__qS_R0_bR5SqGW-95" value="" style="endArrow=none;html=1;rounded=0;exitX=1;exitY=0.5;exitDx=0;exitDy=0;entryX=0;entryY=0.5;entryDx=0;entryDy=0;" parent="1" source="lBxiZ__qS_R0_bR5SqGW-94" target="lBxiZ__qS_R0_bR5SqGW-16" edge="1">
          <mxGeometry width="50" height="50" relative="1" as="geometry">
            <mxPoint x="290" y="480" as="sourcePoint" />
            <mxPoint x="335" y="464" as="targetPoint" />
            <Array as="points" />
          </mxGeometry>
        </mxCell>
        <mxCell id="lBxiZ__qS_R0_bR5SqGW-96" value="&lt;b&gt;&lt;u&gt;shipment_id&lt;/u&gt;&lt;/b&gt;" style="ellipse;whiteSpace=wrap;html=1;align=center;fillColor=#e1d5e7;strokeColor=#9673a6;" parent="1" vertex="1">
          <mxGeometry x="285" y="530" width="100" height="40" as="geometry" />
        </mxCell>
        <mxCell id="lBxiZ__qS_R0_bR5SqGW-97" value="&lt;i&gt;order_id&lt;/i&gt;" style="ellipse;whiteSpace=wrap;html=1;align=center;fillColor=#e1d5e7;strokeColor=#9673a6;" parent="1" vertex="1">
          <mxGeometry x="500" y="440" width="100" height="40" as="geometry" />
        </mxCell>
        <mxCell id="lBxiZ__qS_R0_bR5SqGW-98" value="1,N" style="text;html=1;align=center;verticalAlign=middle;resizable=0;points=[];autosize=1;strokeColor=none;fillColor=none;" parent="1" vertex="1">
          <mxGeometry x="450" y="315" width="40" height="30" as="geometry" />
        </mxCell>
        <mxCell id="lBxiZ__qS_R0_bR5SqGW-99" value="status" style="ellipse;whiteSpace=wrap;html=1;align=center;fillColor=#e1d5e7;strokeColor=#9673a6;" parent="1" vertex="1">
          <mxGeometry x="200" y="490" width="100" height="40" as="geometry" />
        </mxCell>
        <mxCell id="lBxiZ__qS_R0_bR5SqGW-100" value="city" style="ellipse;whiteSpace=wrap;html=1;align=center;fillColor=#e1d5e7;strokeColor=#9673a6;" parent="1" vertex="1">
          <mxGeometry x="400" y="530" width="100" height="40" as="geometry" />
        </mxCell>
        <mxCell id="lBxiZ__qS_R0_bR5SqGW-102" value="postal_code" style="ellipse;whiteSpace=wrap;html=1;align=center;fillColor=#e1d5e7;strokeColor=#9673a6;" parent="1" vertex="1">
          <mxGeometry x="480" y="490" width="100" height="40" as="geometry" />
        </mxCell>
        <mxCell id="lBxiZ__qS_R0_bR5SqGW-104" value="" style="endArrow=none;html=1;rounded=0;exitX=1;exitY=0;exitDx=0;exitDy=0;entryX=0;entryY=1;entryDx=0;entryDy=0;" parent="1" source="lBxiZ__qS_R0_bR5SqGW-99" target="lBxiZ__qS_R0_bR5SqGW-16" edge="1">
          <mxGeometry width="50" height="50" relative="1" as="geometry">
            <mxPoint x="330" y="500" as="sourcePoint" />
            <mxPoint x="385" y="500" as="targetPoint" />
            <Array as="points" />
          </mxGeometry>
        </mxCell>
        <mxCell id="lBxiZ__qS_R0_bR5SqGW-105" value="" style="endArrow=none;html=1;rounded=0;exitX=0.5;exitY=0;exitDx=0;exitDy=0;entryX=0.25;entryY=1;entryDx=0;entryDy=0;" parent="1" source="lBxiZ__qS_R0_bR5SqGW-96" target="lBxiZ__qS_R0_bR5SqGW-16" edge="1">
          <mxGeometry width="50" height="50" relative="1" as="geometry">
            <mxPoint x="315" y="516" as="sourcePoint" />
            <mxPoint x="370" y="500" as="targetPoint" />
            <Array as="points" />
          </mxGeometry>
        </mxCell>
        <mxCell id="lBxiZ__qS_R0_bR5SqGW-106" value="" style="endArrow=none;html=1;rounded=0;exitX=0.5;exitY=0;exitDx=0;exitDy=0;entryX=0.75;entryY=1;entryDx=0;entryDy=0;" parent="1" source="lBxiZ__qS_R0_bR5SqGW-100" target="lBxiZ__qS_R0_bR5SqGW-16" edge="1">
          <mxGeometry width="50" height="50" relative="1" as="geometry">
            <mxPoint x="377.5" y="520" as="sourcePoint" />
            <mxPoint x="422.5" y="470" as="targetPoint" />
            <Array as="points" />
          </mxGeometry>
        </mxCell>
        <mxCell id="lBxiZ__qS_R0_bR5SqGW-107" value="" style="endArrow=none;html=1;rounded=0;exitX=0;exitY=0;exitDx=0;exitDy=0;entryX=1;entryY=1;entryDx=0;entryDy=0;" parent="1" source="lBxiZ__qS_R0_bR5SqGW-102" target="lBxiZ__qS_R0_bR5SqGW-16" edge="1">
          <mxGeometry width="50" height="50" relative="1" as="geometry">
            <mxPoint x="484.8246609406728" y="505.85786437626894" as="sourcePoint" />
            <mxPoint x="455.18" y="450" as="targetPoint" />
            <Array as="points" />
          </mxGeometry>
        </mxCell>
        <mxCell id="lBxiZ__qS_R0_bR5SqGW-108" value="" style="endArrow=none;html=1;rounded=0;exitX=0;exitY=0.5;exitDx=0;exitDy=0;entryX=1;entryY=0.5;entryDx=0;entryDy=0;" parent="1" source="lBxiZ__qS_R0_bR5SqGW-97" target="lBxiZ__qS_R0_bR5SqGW-16" edge="1">
          <mxGeometry width="50" height="50" relative="1" as="geometry">
            <mxPoint x="515" y="466" as="sourcePoint" />
            <mxPoint x="460" y="440" as="targetPoint" />
            <Array as="points" />
          </mxGeometry>
        </mxCell>
        <mxCell id="cFIYYu65W-cfg0NRTtNZ-1" value="&lt;i&gt;order_id&lt;/i&gt;" style="ellipse;whiteSpace=wrap;html=1;align=center;fillColor=#e1d5e7;strokeColor=#9673a6;" parent="1" vertex="1">
          <mxGeometry x="670" y="240" width="100" height="40" as="geometry" />
        </mxCell>
        <mxCell id="cFIYYu65W-cfg0NRTtNZ-2" value="" style="endArrow=none;html=1;rounded=0;exitX=1;exitY=0;exitDx=0;exitDy=0;entryX=0;entryY=1;entryDx=0;entryDy=0;" parent="1" source="cFIYYu65W-cfg0NRTtNZ-1" target="lBxiZ__qS_R0_bR5SqGW-24" edge="1">
          <mxGeometry width="50" height="50" relative="1" as="geometry">
            <mxPoint x="850" y="300" as="sourcePoint" />
            <mxPoint x="790" y="300" as="targetPoint" />
            <Array as="points" />
          </mxGeometry>
        </mxCell>
        <mxCell id="cFIYYu65W-cfg0NRTtNZ-3" value="&lt;b&gt;&lt;u&gt;order_detail_id&lt;/u&gt;&lt;/b&gt;" style="ellipse;whiteSpace=wrap;html=1;align=center;fillColor=#e1d5e7;strokeColor=#9673a6;" parent="1" vertex="1">
          <mxGeometry x="720" y="280" width="110" height="40" as="geometry" />
        </mxCell>
        <mxCell id="cFIYYu65W-cfg0NRTtNZ-4" value="" style="endArrow=none;html=1;rounded=0;exitX=0.5;exitY=0;exitDx=0;exitDy=0;entryX=0.25;entryY=1;entryDx=0;entryDy=0;" parent="1" source="cFIYYu65W-cfg0NRTtNZ-3" target="lBxiZ__qS_R0_bR5SqGW-24" edge="1">
          <mxGeometry width="50" height="50" relative="1" as="geometry">
            <mxPoint x="790" y="266" as="sourcePoint" />
            <mxPoint x="835" y="240" as="targetPoint" />
            <Array as="points" />
          </mxGeometry>
        </mxCell>
        <mxCell id="cFIYYu65W-cfg0NRTtNZ-5" value="&lt;i&gt;product_id&lt;/i&gt;" style="ellipse;whiteSpace=wrap;html=1;align=center;fillColor=#e1d5e7;strokeColor=#9673a6;" parent="1" vertex="1">
          <mxGeometry x="810" y="310" width="100" height="40" as="geometry" />
        </mxCell>
        <mxCell id="cFIYYu65W-cfg0NRTtNZ-6" value="" style="endArrow=none;html=1;rounded=0;exitX=0.5;exitY=0;exitDx=0;exitDy=0;entryX=0.5;entryY=1;entryDx=0;entryDy=0;" parent="1" source="cFIYYu65W-cfg0NRTtNZ-5" target="lBxiZ__qS_R0_bR5SqGW-24" edge="1">
          <mxGeometry width="50" height="50" relative="1" as="geometry">
            <mxPoint x="860" y="270" as="sourcePoint" />
            <mxPoint x="905" y="244" as="targetPoint" />
            <Array as="points" />
          </mxGeometry>
        </mxCell>
        <mxCell id="cFIYYu65W-cfg0NRTtNZ-7" value="&lt;b&gt;&lt;u&gt;discount_id&lt;/u&gt;&lt;/b&gt;" style="ellipse;whiteSpace=wrap;html=1;align=center;fillColor=#e1d5e7;strokeColor=#9673a6;" parent="1" vertex="1">
          <mxGeometry x="800" y="-140" width="110" height="40" as="geometry" />
        </mxCell>
        <mxCell id="cFIYYu65W-cfg0NRTtNZ-8" value="" style="endArrow=none;html=1;rounded=0;exitX=0.5;exitY=1;exitDx=0;exitDy=0;entryX=0.5;entryY=0;entryDx=0;entryDy=0;" parent="1" source="cFIYYu65W-cfg0NRTtNZ-7" target="lBxiZ__qS_R0_bR5SqGW-48" edge="1">
          <mxGeometry width="50" height="50" relative="1" as="geometry">
            <mxPoint x="860" y="-100" as="sourcePoint" />
            <mxPoint x="820" y="-34" as="targetPoint" />
            <Array as="points" />
          </mxGeometry>
        </mxCell>
        <mxCell id="cFIYYu65W-cfg0NRTtNZ-10" value="1,N" style="text;html=1;align=center;verticalAlign=middle;resizable=0;points=[];autosize=1;strokeColor=none;fillColor=none;" parent="1" vertex="1">
          <mxGeometry x="580" y="28" width="40" height="30" as="geometry" />
        </mxCell>
        <mxCell id="cFIYYu65W-cfg0NRTtNZ-13" value="N,M" style="text;html=1;align=center;verticalAlign=middle;resizable=0;points=[];autosize=1;strokeColor=none;fillColor=none;" parent="1" vertex="1">
          <mxGeometry x="1105" y="38" width="50" height="30" as="geometry" />
        </mxCell>
        <mxCell id="cFIYYu65W-cfg0NRTtNZ-16" value="N,M" style="text;html=1;align=center;verticalAlign=middle;resizable=0;points=[];autosize=1;strokeColor=none;fillColor=none;" parent="1" vertex="1">
          <mxGeometry x="1295" y="390" width="50" height="30" as="geometry" />
        </mxCell>
        <mxCell id="cFIYYu65W-cfg0NRTtNZ-17" value="N,M" style="text;html=1;align=center;verticalAlign=middle;resizable=0;points=[];autosize=1;strokeColor=none;fillColor=none;" parent="1" vertex="1">
          <mxGeometry x="1525" y="148" width="50" height="30" as="geometry" />
        </mxCell>
        <mxCell id="cFIYYu65W-cfg0NRTtNZ-18" value="1,N" style="text;html=1;align=center;verticalAlign=middle;resizable=0;points=[];autosize=1;strokeColor=none;fillColor=none;" parent="1" vertex="1">
          <mxGeometry x="1380" y="48" width="40" height="30" as="geometry" />
        </mxCell>
        <mxCell id="cFIYYu65W-cfg0NRTtNZ-19" value="description" style="ellipse;whiteSpace=wrap;html=1;align=center;fillColor=#e1d5e7;strokeColor=#9673a6;" parent="1" vertex="1">
          <mxGeometry x="930" y="-50" width="100" height="40" as="geometry" />
        </mxCell>
        <mxCell id="cFIYYu65W-cfg0NRTtNZ-20" value="start_date" style="ellipse;whiteSpace=wrap;html=1;align=center;fillColor=#e1d5e7;strokeColor=#9673a6;" parent="1" vertex="1">
          <mxGeometry x="700" y="-110" width="100" height="40" as="geometry" />
        </mxCell>
        <mxCell id="cFIYYu65W-cfg0NRTtNZ-21" value="end_date" style="ellipse;whiteSpace=wrap;html=1;align=center;fillColor=#e1d5e7;strokeColor=#9673a6;" parent="1" vertex="1">
          <mxGeometry x="920" y="-110" width="100" height="40" as="geometry" />
        </mxCell>
        <mxCell id="cFIYYu65W-cfg0NRTtNZ-22" value="" style="endArrow=none;html=1;rounded=0;exitX=1;exitY=1;exitDx=0;exitDy=0;entryX=0.25;entryY=0;entryDx=0;entryDy=0;" parent="1" source="cFIYYu65W-cfg0NRTtNZ-20" target="lBxiZ__qS_R0_bR5SqGW-48" edge="1">
          <mxGeometry width="50" height="50" relative="1" as="geometry">
            <mxPoint x="810" y="-120" as="sourcePoint" />
            <mxPoint x="810" y="-40" as="targetPoint" />
            <Array as="points" />
          </mxGeometry>
        </mxCell>
        <mxCell id="cFIYYu65W-cfg0NRTtNZ-23" value="" style="endArrow=none;html=1;rounded=0;exitX=0;exitY=1;exitDx=0;exitDy=0;entryX=0.75;entryY=0;entryDx=0;entryDy=0;" parent="1" source="cFIYYu65W-cfg0NRTtNZ-21" target="lBxiZ__qS_R0_bR5SqGW-48" edge="1">
          <mxGeometry width="50" height="50" relative="1" as="geometry">
            <mxPoint x="837.5" y="-76" as="sourcePoint" />
            <mxPoint x="880" y="-40" as="targetPoint" />
            <Array as="points" />
          </mxGeometry>
        </mxCell>
        <mxCell id="cFIYYu65W-cfg0NRTtNZ-24" value="" style="endArrow=none;html=1;rounded=0;exitX=0;exitY=0.5;exitDx=0;exitDy=0;entryX=0.953;entryY=0.052;entryDx=0;entryDy=0;entryPerimeter=0;" parent="1" source="cFIYYu65W-cfg0NRTtNZ-19" target="lBxiZ__qS_R0_bR5SqGW-48" edge="1">
          <mxGeometry width="50" height="50" relative="1" as="geometry">
            <mxPoint x="960" y="-76" as="sourcePoint" />
            <mxPoint x="910" y="-10" as="targetPoint" />
            <Array as="points" />
          </mxGeometry>
        </mxCell>
        <mxCell id="cFIYYu65W-cfg0NRTtNZ-25" value="&lt;i&gt;order_detail_id&lt;/i&gt;&lt;span style=&quot;color: rgba(0, 0, 0, 0); font-family: monospace; font-size: 0px; text-align: start; text-wrap: nowrap;&quot;&gt;%3CmxGraphModel%3E%3Croot%3E%3CmxCell%20id%3D%220%22%2F%3E%3CmxCell%20id%3D%221%22%20parent%3D%220%22%2F%3E%3CmxCell%20id%3D%222%22%20value%3D%22%26lt%3Bb%26gt%3B%26lt%3Bu%26gt%3Border_detail_id%26lt%3B%2Fu%26gt%3B%26lt%3B%2Fb%26gt%3B%22%20style%3D%22ellipse%3BwhiteSpace%3Dwrap%3Bhtml%3D1%3Balign%3Dcenter%3BfillColor%3D%23e1d5e7%3BstrokeColor%3D%239673a6%3B%22%20vertex%3D%221%22%20parent%3D%221%22%3E%3CmxGeometry%20x%3D%22720%22%20y%3D%22280%22%20width%3D%22110%22%20height%3D%2240%22%20as%3D%22geometry%22%2F%3E%3C%2FmxCell%3E%3C%2Froot%3E%3C%2FmxGraphModel%3E&lt;/span&gt;" style="ellipse;whiteSpace=wrap;html=1;align=center;fillColor=#e1d5e7;strokeColor=#9673a6;" parent="1" vertex="1">
          <mxGeometry x="1140" y="230" width="100" height="40" as="geometry" />
        </mxCell>
        <mxCell id="cFIYYu65W-cfg0NRTtNZ-26" value="&lt;b&gt;&lt;u&gt;product_id&lt;/u&gt;&lt;/b&gt;" style="ellipse;whiteSpace=wrap;html=1;align=center;fillColor=#e1d5e7;strokeColor=#9673a6;" parent="1" vertex="1">
          <mxGeometry x="1265" y="320" width="110" height="40" as="geometry" />
        </mxCell>
        <mxCell id="cFIYYu65W-cfg0NRTtNZ-29" value="name" style="ellipse;whiteSpace=wrap;html=1;align=center;fillColor=#e1d5e7;strokeColor=#9673a6;" parent="1" vertex="1">
          <mxGeometry x="1390" y="230" width="100" height="40" as="geometry" />
        </mxCell>
        <mxCell id="cFIYYu65W-cfg0NRTtNZ-30" value="price" style="ellipse;whiteSpace=wrap;html=1;align=center;fillColor=#e1d5e7;strokeColor=#9673a6;" parent="1" vertex="1">
          <mxGeometry x="1360" y="275" width="100" height="40" as="geometry" />
        </mxCell>
        <mxCell id="cFIYYu65W-cfg0NRTtNZ-31" value="Description" style="ellipse;whiteSpace=wrap;html=1;align=center;fillColor=#e1d5e7;strokeColor=#9673a6;" parent="1" vertex="1">
          <mxGeometry x="1400" y="135" width="100" height="40" as="geometry" />
        </mxCell>
        <mxCell id="cFIYYu65W-cfg0NRTtNZ-32" value="" style="endArrow=none;html=1;rounded=0;exitX=0.5;exitY=1;exitDx=0;exitDy=0;entryX=0.487;entryY=-0.07;entryDx=0;entryDy=0;entryPerimeter=0;" parent="1" source="lBxiZ__qS_R0_bR5SqGW-34" target="cFIYYu65W-cfg0NRTtNZ-26" edge="1">
          <mxGeometry width="50" height="50" relative="1" as="geometry">
            <mxPoint x="1350" y="232" as="sourcePoint" />
            <mxPoint x="1295" y="288" as="targetPoint" />
            <Array as="points" />
          </mxGeometry>
        </mxCell>
        <mxCell id="cFIYYu65W-cfg0NRTtNZ-33" value="" style="endArrow=none;html=1;rounded=0;exitX=0;exitY=1;exitDx=0;exitDy=0;entryX=1;entryY=0.5;entryDx=0;entryDy=0;" parent="1" source="lBxiZ__qS_R0_bR5SqGW-34" target="cFIYYu65W-cfg0NRTtNZ-25" edge="1">
          <mxGeometry width="50" height="50" relative="1" as="geometry">
            <mxPoint x="1241" y="201.5" as="sourcePoint" />
            <mxPoint x="1240" y="298.5" as="targetPoint" />
            <Array as="points" />
          </mxGeometry>
        </mxCell>
        <mxCell id="cFIYYu65W-cfg0NRTtNZ-36" value="" style="endArrow=none;html=1;rounded=0;exitX=1;exitY=1;exitDx=0;exitDy=0;entryX=0;entryY=0.5;entryDx=0;entryDy=0;" parent="1" source="lBxiZ__qS_R0_bR5SqGW-34" target="cFIYYu65W-cfg0NRTtNZ-29" edge="1">
          <mxGeometry width="50" height="50" relative="1" as="geometry">
            <mxPoint x="1320" y="190" as="sourcePoint" />
            <mxPoint x="1365" y="256" as="targetPoint" />
            <Array as="points" />
          </mxGeometry>
        </mxCell>
        <mxCell id="cFIYYu65W-cfg0NRTtNZ-37" value="" style="endArrow=none;html=1;rounded=0;exitX=0;exitY=0;exitDx=0;exitDy=0;entryX=0.75;entryY=1;entryDx=0;entryDy=0;" parent="1" source="cFIYYu65W-cfg0NRTtNZ-30" target="lBxiZ__qS_R0_bR5SqGW-34" edge="1">
          <mxGeometry width="50" height="50" relative="1" as="geometry">
            <mxPoint x="1355" y="154" as="sourcePoint" />
            <mxPoint x="1400" y="220" as="targetPoint" />
            <Array as="points" />
          </mxGeometry>
        </mxCell>
        <mxCell id="cFIYYu65W-cfg0NRTtNZ-38" value="" style="endArrow=none;html=1;rounded=0;exitX=0;exitY=0.5;exitDx=0;exitDy=0;entryX=1;entryY=0;entryDx=0;entryDy=0;" parent="1" source="cFIYYu65W-cfg0NRTtNZ-31" target="lBxiZ__qS_R0_bR5SqGW-34" edge="1">
          <mxGeometry width="50" height="50" relative="1" as="geometry">
            <mxPoint x="1375" y="250" as="sourcePoint" />
            <mxPoint x="1420" y="316" as="targetPoint" />
            <Array as="points" />
          </mxGeometry>
        </mxCell>
        <mxCell id="cFIYYu65W-cfg0NRTtNZ-39" value="&lt;b&gt;&lt;u&gt;categorie_id&lt;/u&gt;&lt;/b&gt;" style="ellipse;whiteSpace=wrap;html=1;align=center;fillColor=#e1d5e7;strokeColor=#9673a6;" parent="1" vertex="1">
          <mxGeometry x="1265" y="-220" width="110" height="40" as="geometry" />
        </mxCell>
        <mxCell id="cFIYYu65W-cfg0NRTtNZ-40" value="name&lt;span style=&quot;color: rgba(0, 0, 0, 0); font-family: monospace; font-size: 0px; text-align: start; text-wrap: nowrap;&quot;&gt;%3CmxGraphModel%3E%3Croot%3E%3CmxCell%20id%3D%220%22%2F%3E%3CmxCell%20id%3D%221%22%20parent%3D%220%22%2F%3E%3CmxCell%20id%3D%222%22%20value%3D%22%22%20style%3D%22endArrow%3Dnone%3Bhtml%3D1%3Brounded%3D0%3BexitX%3D0%3BexitY%3D1%3BexitDx%3D0%3BexitDy%3D0%3BentryX%3D0.75%3BentryY%3D0%3BentryDx%3D0%3BentryDy%3D0%3B%22%20edge%3D%221%22%20parent%3D%221%22%3E%3CmxGeometry%20width%3D%2250%22%20height%3D%2250%22%20relative%3D%221%22%20as%3D%22geometry%22%3E%3CmxPoint%20x%3D%221355%22%20y%3D%22124%22%20as%3D%22sourcePoint%22%2F%3E%3CmxPoint%20x%3D%221345%22%20y%3D%22180%22%20as%3D%22targetPoint%22%2F%3E%3CArray%20as%3D%22points%22%2F%3E%3C%2FmxGeometry%3E%3C%2FmxCell%3E%3C%2Froot%3E%3C%2FmxGraphModel%3E&lt;/span&gt;" style="ellipse;whiteSpace=wrap;html=1;align=center;fillColor=#e1d5e7;strokeColor=#9673a6;" parent="1" vertex="1">
          <mxGeometry x="1180" y="-170" width="100" height="40" as="geometry" />
        </mxCell>
        <mxCell id="cFIYYu65W-cfg0NRTtNZ-41" value="" style="endArrow=none;html=1;rounded=0;exitX=0.5;exitY=1;exitDx=0;exitDy=0;entryX=0.5;entryY=0;entryDx=0;entryDy=0;" parent="1" source="cFIYYu65W-cfg0NRTtNZ-39" target="lBxiZ__qS_R0_bR5SqGW-46" edge="1">
          <mxGeometry width="50" height="50" relative="1" as="geometry">
            <mxPoint x="1250" y="-140" as="sourcePoint" />
            <mxPoint x="1240" y="-84" as="targetPoint" />
            <Array as="points" />
          </mxGeometry>
        </mxCell>
        <mxCell id="cFIYYu65W-cfg0NRTtNZ-43" value="descripton" style="ellipse;whiteSpace=wrap;html=1;align=center;fillColor=#e1d5e7;strokeColor=#9673a6;" parent="1" vertex="1">
          <mxGeometry x="1360" y="-170" width="100" height="40" as="geometry" />
        </mxCell>
        <mxCell id="cFIYYu65W-cfg0NRTtNZ-44" value="" style="endArrow=none;html=1;rounded=0;exitX=1;exitY=1;exitDx=0;exitDy=0;entryX=0.25;entryY=0;entryDx=0;entryDy=0;" parent="1" source="cFIYYu65W-cfg0NRTtNZ-40" target="lBxiZ__qS_R0_bR5SqGW-46" edge="1">
          <mxGeometry width="50" height="50" relative="1" as="geometry">
            <mxPoint x="1330" y="-170" as="sourcePoint" />
            <mxPoint x="1330" y="-80" as="targetPoint" />
            <Array as="points" />
          </mxGeometry>
        </mxCell>
        <mxCell id="cFIYYu65W-cfg0NRTtNZ-45" value="" style="endArrow=none;html=1;rounded=0;exitX=0;exitY=1;exitDx=0;exitDy=0;entryX=0.802;entryY=0.018;entryDx=0;entryDy=0;entryPerimeter=0;" parent="1" source="cFIYYu65W-cfg0NRTtNZ-43" target="lBxiZ__qS_R0_bR5SqGW-46" edge="1">
          <mxGeometry width="50" height="50" relative="1" as="geometry">
            <mxPoint x="1275" y="-126" as="sourcePoint" />
            <mxPoint x="1305" y="-80" as="targetPoint" />
            <Array as="points" />
          </mxGeometry>
        </mxCell>
        <mxCell id="cFIYYu65W-cfg0NRTtNZ-46" value="&lt;b&gt;&lt;u&gt;ingredient_id&lt;/u&gt;&lt;/b&gt;" style="ellipse;whiteSpace=wrap;html=1;align=center;fillColor=#e1d5e7;strokeColor=#9673a6;" parent="1" vertex="1">
          <mxGeometry x="1890" y="180" width="110" height="40" as="geometry" />
        </mxCell>
        <mxCell id="cFIYYu65W-cfg0NRTtNZ-47" value="name&lt;span style=&quot;color: rgba(0, 0, 0, 0); font-family: monospace; font-size: 0px; text-align: start; text-wrap: nowrap;&quot;&gt;%3CmxGraphModel%3E%3Croot%3E%3CmxCell%20id%3D%220%22%2F%3E%3CmxCell%20id%3D%221%22%20parent%3D%220%22%2F%3E%3CmxCell%20id%3D%222%22%20value%3D%22%22%20style%3D%22endArrow%3Dnone%3Bhtml%3D1%3Brounded%3D0%3BexitX%3D0%3BexitY%3D1%3BexitDx%3D0%3BexitDy%3D0%3BentryX%3D0.802%3BentryY%3D0.018%3BentryDx%3D0%3BentryDy%3D0%3BentryPerimeter%3D0%3B%22%20edge%3D%221%22%20parent%3D%221%22%3E%3CmxGeometry%20width%3D%2250%22%20height%3D%2250%22%20relative%3D%221%22%20as%3D%22geometry%22%3E%3CmxPoint%20x%3D%221375%22%20y%3D%22-136%22%20as%3D%22sourcePoint%22%2F%3E%3CmxPoint%20x%3D%221350%22%20y%3D%22-89%22%20as%3D%22targetPoint%22%2F%3E%3CArray%20as%3D%22points%22%2F%3E%3C%2FmxGeometry%3E%3C%2FmxCell%3E%3C%2Froot%3E%3C%2FmxGraphModel%3E&lt;/span&gt;" style="ellipse;whiteSpace=wrap;html=1;align=center;fillColor=#e1d5e7;strokeColor=#9673a6;" parent="1" vertex="1">
          <mxGeometry x="1860" y="260" width="100" height="40" as="geometry" />
        </mxCell>
        <mxCell id="cFIYYu65W-cfg0NRTtNZ-48" value="" style="endArrow=none;html=1;rounded=0;exitX=0;exitY=0.5;exitDx=0;exitDy=0;entryX=1;entryY=0.5;entryDx=0;entryDy=0;" parent="1" source="cFIYYu65W-cfg0NRTtNZ-46" target="lBxiZ__qS_R0_bR5SqGW-40" edge="1">
          <mxGeometry width="50" height="50" relative="1" as="geometry">
            <mxPoint x="1890" y="139.5" as="sourcePoint" />
            <mxPoint x="1865" y="186.5" as="targetPoint" />
            <Array as="points" />
          </mxGeometry>
        </mxCell>
        <mxCell id="cFIYYu65W-cfg0NRTtNZ-49" value="description" style="ellipse;whiteSpace=wrap;html=1;align=center;fillColor=#e1d5e7;strokeColor=#9673a6;" parent="1" vertex="1">
          <mxGeometry x="1860" y="100" width="100" height="40" as="geometry" />
        </mxCell>
        <mxCell id="cFIYYu65W-cfg0NRTtNZ-50" value="" style="endArrow=none;html=1;rounded=0;exitX=0;exitY=1;exitDx=0;exitDy=0;entryX=1;entryY=0;entryDx=0;entryDy=0;" parent="1" source="cFIYYu65W-cfg0NRTtNZ-49" target="lBxiZ__qS_R0_bR5SqGW-40" edge="1">
          <mxGeometry width="50" height="50" relative="1" as="geometry">
            <mxPoint x="1880" y="154.57999999999998" as="sourcePoint" />
            <mxPoint x="1820" y="154.57999999999998" as="targetPoint" />
            <Array as="points" />
          </mxGeometry>
        </mxCell>
        <mxCell id="cFIYYu65W-cfg0NRTtNZ-51" value="" style="endArrow=none;html=1;rounded=0;exitX=0;exitY=0;exitDx=0;exitDy=0;entryX=1;entryY=1;entryDx=0;entryDy=0;" parent="1" source="cFIYYu65W-cfg0NRTtNZ-47" target="lBxiZ__qS_R0_bR5SqGW-40" edge="1">
          <mxGeometry width="50" height="50" relative="1" as="geometry">
            <mxPoint x="1890" y="207" as="sourcePoint" />
            <mxPoint x="1845" y="253" as="targetPoint" />
            <Array as="points" />
          </mxGeometry>
        </mxCell>
        <mxCell id="cFIYYu65W-cfg0NRTtNZ-52" value="amount" style="ellipse;whiteSpace=wrap;html=1;align=center;fillColor=#e1d5e7;strokeColor=#9673a6;" parent="1" vertex="1">
          <mxGeometry x="920" y="300" width="100" height="40" as="geometry" />
        </mxCell>
        <mxCell id="cFIYYu65W-cfg0NRTtNZ-53" value="" style="endArrow=none;html=1;rounded=0;exitX=0;exitY=0;exitDx=0;exitDy=0;entryX=0.75;entryY=1;entryDx=0;entryDy=0;" parent="1" source="cFIYYu65W-cfg0NRTtNZ-52" target="lBxiZ__qS_R0_bR5SqGW-24" edge="1">
          <mxGeometry width="50" height="50" relative="1" as="geometry">
            <mxPoint x="935" y="315" as="sourcePoint" />
            <mxPoint x="930" y="225" as="targetPoint" />
            <Array as="points" />
          </mxGeometry>
        </mxCell>
        <mxCell id="cFIYYu65W-cfg0NRTtNZ-54" value="amount" style="ellipse;whiteSpace=wrap;html=1;align=center;fillColor=#e1d5e7;strokeColor=#9673a6;" parent="1" vertex="1">
          <mxGeometry x="1180" y="280" width="100" height="40" as="geometry" />
        </mxCell>
        <mxCell id="cFIYYu65W-cfg0NRTtNZ-55" value="" style="endArrow=none;html=1;rounded=0;entryX=0.25;entryY=1;entryDx=0;entryDy=0;" parent="1" source="cFIYYu65W-cfg0NRTtNZ-54" target="lBxiZ__qS_R0_bR5SqGW-34" edge="1">
          <mxGeometry width="50" height="50" relative="1" as="geometry">
            <mxPoint x="1310" y="119" as="sourcePoint" />
            <mxPoint x="1300" y="175" as="targetPoint" />
            <Array as="points" />
          </mxGeometry>
        </mxCell>
        <mxCell id="cFIYYu65W-cfg0NRTtNZ-56" value="&lt;i&gt;date_shipment&lt;/i&gt;" style="ellipse;whiteSpace=wrap;html=1;align=center;fillColor=#e1d5e7;strokeColor=#9673a6;" parent="1" vertex="1">
          <mxGeometry x="470" y="380" width="100" height="40" as="geometry" />
        </mxCell>
        <mxCell id="cFIYYu65W-cfg0NRTtNZ-57" value="" style="endArrow=none;html=1;rounded=0;exitX=0;exitY=1;exitDx=0;exitDy=0;entryX=1;entryY=0;entryDx=0;entryDy=0;" parent="1" source="cFIYYu65W-cfg0NRTtNZ-56" target="lBxiZ__qS_R0_bR5SqGW-16" edge="1">
          <mxGeometry width="50" height="50" relative="1" as="geometry">
            <mxPoint x="510" y="470" as="sourcePoint" />
            <mxPoint x="450" y="470" as="targetPoint" />
            <Array as="points" />
          </mxGeometry>
        </mxCell>
        <mxCell id="cFIYYu65W-cfg0NRTtNZ-58" value="Relationship" style="shape=rhombus;perimeter=rhombusPerimeter;whiteSpace=wrap;html=1;align=center;fillColor=#d5e8d4;strokeColor=#82b366;" parent="1" vertex="1">
          <mxGeometry x="795" y="70" width="120" height="60" as="geometry" />
        </mxCell>
        <mxCell id="cFIYYu65W-cfg0NRTtNZ-59" value="" style="endArrow=none;html=1;rounded=0;exitX=0.5;exitY=0;exitDx=0;exitDy=0;entryX=0.5;entryY=1;entryDx=0;entryDy=0;" parent="1" source="cFIYYu65W-cfg0NRTtNZ-58" target="lBxiZ__qS_R0_bR5SqGW-48" edge="1">
          <mxGeometry width="50" height="50" relative="1" as="geometry">
            <mxPoint x="720" y="92.5" as="sourcePoint" />
            <mxPoint x="865" y="47.5" as="targetPoint" />
            <Array as="points" />
          </mxGeometry>
        </mxCell>
        <mxCell id="cFIYYu65W-cfg0NRTtNZ-60" value="1,1" style="edgeLabel;html=1;align=center;verticalAlign=middle;resizable=0;points=[];" parent="cFIYYu65W-cfg0NRTtNZ-59" vertex="1" connectable="0">
          <mxGeometry x="0.1157" relative="1" as="geometry">
            <mxPoint as="offset" />
          </mxGeometry>
        </mxCell>
        <mxCell id="cFIYYu65W-cfg0NRTtNZ-61" value="" style="endArrow=none;html=1;rounded=0;exitX=0.5;exitY=0;exitDx=0;exitDy=0;entryX=0.5;entryY=1;entryDx=0;entryDy=0;" parent="1" edge="1">
          <mxGeometry width="50" height="50" relative="1" as="geometry">
            <mxPoint x="854.68" y="178" as="sourcePoint" />
            <mxPoint x="854.68" y="128" as="targetPoint" />
            <Array as="points" />
          </mxGeometry>
        </mxCell>
        <mxCell id="cFIYYu65W-cfg0NRTtNZ-62" value="0,N" style="edgeLabel;html=1;align=center;verticalAlign=middle;resizable=0;points=[];" parent="cFIYYu65W-cfg0NRTtNZ-61" vertex="1" connectable="0">
          <mxGeometry x="0.1157" relative="1" as="geometry">
            <mxPoint as="offset" />
          </mxGeometry>
        </mxCell>
        <mxCell id="cFIYYu65W-cfg0NRTtNZ-63" value="1,N" style="text;html=1;align=center;verticalAlign=middle;resizable=0;points=[];autosize=1;strokeColor=none;fillColor=none;" parent="1" vertex="1">
          <mxGeometry x="915" y="85" width="40" height="30" as="geometry" />
        </mxCell>
        <mxCell id="cFIYYu65W-cfg0NRTtNZ-64" value="price" style="ellipse;whiteSpace=wrap;html=1;align=center;fillColor=#e1d5e7;strokeColor=#9673a6;" parent="1" vertex="1">
          <mxGeometry x="690" y="120" width="100" height="40" as="geometry" />
        </mxCell>
        <mxCell id="cFIYYu65W-cfg0NRTtNZ-67" value="" style="endArrow=none;html=1;rounded=0;exitX=1;exitY=1;exitDx=0;exitDy=0;entryX=0;entryY=0;entryDx=0;entryDy=0;" parent="1" source="cFIYYu65W-cfg0NRTtNZ-64" target="lBxiZ__qS_R0_bR5SqGW-24" edge="1">
          <mxGeometry width="50" height="50" relative="1" as="geometry">
            <mxPoint x="760" y="190" as="sourcePoint" />
            <mxPoint x="805" y="164" as="targetPoint" />
            <Array as="points" />
          </mxGeometry>
        </mxCell>
        <mxCell id="cFIYYu65W-cfg0NRTtNZ-68" value="total_price" style="ellipse;whiteSpace=wrap;html=1;align=center;fillColor=#e1d5e7;strokeColor=#9673a6;" parent="1" vertex="1">
          <mxGeometry x="420" y="250" width="100" height="40" as="geometry" />
        </mxCell>
        <mxCell id="cFIYYu65W-cfg0NRTtNZ-69" value="total_amount" style="ellipse;whiteSpace=wrap;html=1;align=center;fillColor=#e1d5e7;strokeColor=#9673a6;" parent="1" vertex="1">
          <mxGeometry x="490" y="210" width="100" height="40" as="geometry" />
        </mxCell>
        <mxCell id="cFIYYu65W-cfg0NRTtNZ-70" value="" style="endArrow=none;html=1;rounded=0;exitX=0;exitY=0;exitDx=0;exitDy=0;entryX=0.75;entryY=1;entryDx=0;entryDy=0;" parent="1" source="cFIYYu65W-cfg0NRTtNZ-68" target="lBxiZ__qS_R0_bR5SqGW-10" edge="1">
          <mxGeometry width="50" height="50" relative="1" as="geometry">
            <mxPoint x="367.5" y="270" as="sourcePoint" />
            <mxPoint x="412.5" y="254" as="targetPoint" />
            <Array as="points" />
          </mxGeometry>
        </mxCell>
        <mxCell id="cFIYYu65W-cfg0NRTtNZ-71" value="" style="endArrow=none;html=1;rounded=0;exitX=0;exitY=0.5;exitDx=0;exitDy=0;" parent="1" source="cFIYYu65W-cfg0NRTtNZ-69" edge="1">
          <mxGeometry width="50" height="50" relative="1" as="geometry">
            <mxPoint x="445" y="266" as="sourcePoint" />
            <mxPoint x="440" y="220" as="targetPoint" />
            <Array as="points" />
          </mxGeometry>
        </mxCell>
        <mxCell id="cFIYYu65W-cfg0NRTtNZ-72" value="discount_value" style="ellipse;whiteSpace=wrap;html=1;align=center;fillColor=#e1d5e7;strokeColor=#9673a6;" parent="1" vertex="1">
          <mxGeometry x="670" y="-60" width="100" height="40" as="geometry" />
        </mxCell>
        <mxCell id="cFIYYu65W-cfg0NRTtNZ-73" value="" style="endArrow=none;html=1;rounded=0;exitX=1;exitY=0.5;exitDx=0;exitDy=0;entryX=0;entryY=0;entryDx=0;entryDy=0;" parent="1" source="cFIYYu65W-cfg0NRTtNZ-72" target="lBxiZ__qS_R0_bR5SqGW-48" edge="1">
          <mxGeometry width="50" height="50" relative="1" as="geometry">
            <mxPoint x="795" y="-66" as="sourcePoint" />
            <mxPoint x="840" y="-10" as="targetPoint" />
            <Array as="points" />
          </mxGeometry>
        </mxCell>
        <mxCell id="KnltEw0KhI1YVsgkTjk4-1" value="&lt;i&gt;product_id&lt;/i&gt;" style="ellipse;whiteSpace=wrap;html=1;align=center;fillColor=#e1d5e7;strokeColor=#9673a6;" parent="1" vertex="1">
          <mxGeometry x="1170" y="510" width="100" height="40" as="geometry" />
        </mxCell>
        <mxCell id="KnltEw0KhI1YVsgkTjk4-2" value="" style="endArrow=none;html=1;rounded=0;exitX=1;exitY=0;exitDx=0;exitDy=0;entryX=0;entryY=1;entryDx=0;entryDy=0;" parent="1" source="KnltEw0KhI1YVsgkTjk4-1" target="lBxiZ__qS_R0_bR5SqGW-62" edge="1">
          <mxGeometry width="50" height="50" relative="1" as="geometry">
            <mxPoint x="1185" y="495" as="sourcePoint" />
            <mxPoint x="1180" y="405" as="targetPoint" />
            <Array as="points" />
          </mxGeometry>
        </mxCell>
        <mxCell id="KnltEw0KhI1YVsgkTjk4-3" value="&lt;i&gt;product_id&lt;/i&gt;" style="ellipse;whiteSpace=wrap;html=1;align=center;fillColor=#e1d5e7;strokeColor=#9673a6;" parent="1" vertex="1">
          <mxGeometry x="1360" y="510" width="100" height="40" as="geometry" />
        </mxCell>
        <mxCell id="KnltEw0KhI1YVsgkTjk4-4" value="" style="endArrow=none;html=1;rounded=0;exitX=0;exitY=0;exitDx=0;exitDy=0;entryX=1;entryY=1;entryDx=0;entryDy=0;" parent="1" source="KnltEw0KhI1YVsgkTjk4-3" target="lBxiZ__qS_R0_bR5SqGW-62" edge="1">
          <mxGeometry width="50" height="50" relative="1" as="geometry">
            <mxPoint x="1265" y="526" as="sourcePoint" />
            <mxPoint x="1300" y="475" as="targetPoint" />
            <Array as="points" />
          </mxGeometry>
        </mxCell>
      </root>
    </mxGraphModel>
  </diagram>
  <diagram name="Copia de PÃ¡gina-1" id="GaoIznsREfGQ6mKciCB-">
    <mxGraphModel dx="1450" dy="1021" grid="1" gridSize="10" guides="1" tooltips="1" connect="1" arrows="1" fold="1" page="0" pageScale="1" pageWidth="827" pageHeight="1169" math="0" shadow="0">
      <root>
        <mxCell id="ElKn7YEhaDQzIZ9FbB-I-0" />
        <mxCell id="ElKn7YEhaDQzIZ9FbB-I-1" parent="ElKn7YEhaDQzIZ9FbB-I-0" />
        <mxCell id="ElKn7YEhaDQzIZ9FbB-I-2" value="USER" style="whiteSpace=wrap;html=1;rounded=0;shape=table;startSize=30;container=1;collapsible=1;childLayout=tableLayout;fixedRows=1;rowLines=0;fontStyle=1;resizeLast=1;fillColor=#fff2cc;strokeColor=#d6b656;" vertex="1" parent="ElKn7YEhaDQzIZ9FbB-I-1">
          <mxGeometry x="-80" y="80" width="120" height="210" as="geometry" />
        </mxCell>
        <mxCell id="ElKn7YEhaDQzIZ9FbB-I-3" value="" style="shape=tableRow;horizontal=0;startSize=0;swimlaneHead=0;swimlaneBody=0;fillColor=none;collapsible=0;dropTarget=0;points=[[0,0.5],[1,0.5]];portConstraint=eastwest;top=0;left=0;right=0;bottom=1;" vertex="1" parent="ElKn7YEhaDQzIZ9FbB-I-2">
          <mxGeometry y="30" width="120" height="30" as="geometry" />
        </mxCell>
        <mxCell id="ElKn7YEhaDQzIZ9FbB-I-4" value="PK" style="shape=partialRectangle;connectable=0;fillColor=none;top=0;left=0;bottom=0;right=0;fontStyle=1;overflow=hidden;whiteSpace=wrap;html=1;" vertex="1" parent="ElKn7YEhaDQzIZ9FbB-I-3">
          <mxGeometry width="30" height="30" as="geometry">
            <mxRectangle width="30" height="30" as="alternateBounds" />
          </mxGeometry>
        </mxCell>
        <mxCell id="ElKn7YEhaDQzIZ9FbB-I-5" value="user_id" style="shape=partialRectangle;connectable=0;fillColor=none;top=0;left=0;bottom=0;right=0;align=left;spacingLeft=6;fontStyle=5;overflow=hidden;whiteSpace=wrap;html=1;" vertex="1" parent="ElKn7YEhaDQzIZ9FbB-I-3">
          <mxGeometry x="30" width="90" height="30" as="geometry">
            <mxRectangle width="90" height="30" as="alternateBounds" />
          </mxGeometry>
        </mxCell>
        <mxCell id="ElKn7YEhaDQzIZ9FbB-I-6" value="" style="shape=tableRow;horizontal=0;startSize=0;swimlaneHead=0;swimlaneBody=0;fillColor=none;collapsible=0;dropTarget=0;points=[[0,0.5],[1,0.5]];portConstraint=eastwest;top=0;left=0;right=0;bottom=0;" vertex="1" parent="ElKn7YEhaDQzIZ9FbB-I-2">
          <mxGeometry y="60" width="120" height="30" as="geometry" />
        </mxCell>
        <mxCell id="ElKn7YEhaDQzIZ9FbB-I-7" value="text" style="shape=partialRectangle;connectable=0;fillColor=none;top=0;left=0;bottom=0;right=0;editable=1;overflow=hidden;whiteSpace=wrap;html=1;" vertex="1" parent="ElKn7YEhaDQzIZ9FbB-I-6">
          <mxGeometry width="30" height="30" as="geometry">
            <mxRectangle width="30" height="30" as="alternateBounds" />
          </mxGeometry>
        </mxCell>
        <mxCell id="ElKn7YEhaDQzIZ9FbB-I-8" value="name" style="shape=partialRectangle;connectable=0;fillColor=none;top=0;left=0;bottom=0;right=0;align=left;spacingLeft=6;overflow=hidden;whiteSpace=wrap;html=1;" vertex="1" parent="ElKn7YEhaDQzIZ9FbB-I-6">
          <mxGeometry x="30" width="90" height="30" as="geometry">
            <mxRectangle width="90" height="30" as="alternateBounds" />
          </mxGeometry>
        </mxCell>
        <mxCell id="ElKn7YEhaDQzIZ9FbB-I-9" value="" style="shape=tableRow;horizontal=0;startSize=0;swimlaneHead=0;swimlaneBody=0;fillColor=none;collapsible=0;dropTarget=0;points=[[0,0.5],[1,0.5]];portConstraint=eastwest;top=0;left=0;right=0;bottom=0;" vertex="1" parent="ElKn7YEhaDQzIZ9FbB-I-2">
          <mxGeometry y="90" width="120" height="30" as="geometry" />
        </mxCell>
        <mxCell id="ElKn7YEhaDQzIZ9FbB-I-10" value="text" style="shape=partialRectangle;connectable=0;fillColor=none;top=0;left=0;bottom=0;right=0;editable=1;overflow=hidden;whiteSpace=wrap;html=1;" vertex="1" parent="ElKn7YEhaDQzIZ9FbB-I-9">
          <mxGeometry width="30" height="30" as="geometry">
            <mxRectangle width="30" height="30" as="alternateBounds" />
          </mxGeometry>
        </mxCell>
        <mxCell id="ElKn7YEhaDQzIZ9FbB-I-11" value="email" style="shape=partialRectangle;connectable=0;fillColor=none;top=0;left=0;bottom=0;right=0;align=left;spacingLeft=6;overflow=hidden;whiteSpace=wrap;html=1;" vertex="1" parent="ElKn7YEhaDQzIZ9FbB-I-9">
          <mxGeometry x="30" width="90" height="30" as="geometry">
            <mxRectangle width="90" height="30" as="alternateBounds" />
          </mxGeometry>
        </mxCell>
        <mxCell id="ElKn7YEhaDQzIZ9FbB-I-12" value="" style="shape=tableRow;horizontal=0;startSize=0;swimlaneHead=0;swimlaneBody=0;fillColor=none;collapsible=0;dropTarget=0;points=[[0,0.5],[1,0.5]];portConstraint=eastwest;top=0;left=0;right=0;bottom=0;" vertex="1" parent="ElKn7YEhaDQzIZ9FbB-I-2">
          <mxGeometry y="120" width="120" height="30" as="geometry" />
        </mxCell>
        <mxCell id="ElKn7YEhaDQzIZ9FbB-I-13" value="text" style="shape=partialRectangle;connectable=0;fillColor=none;top=0;left=0;bottom=0;right=0;editable=1;overflow=hidden;whiteSpace=wrap;html=1;" vertex="1" parent="ElKn7YEhaDQzIZ9FbB-I-12">
          <mxGeometry width="30" height="30" as="geometry">
            <mxRectangle width="30" height="30" as="alternateBounds" />
          </mxGeometry>
        </mxCell>
        <mxCell id="ElKn7YEhaDQzIZ9FbB-I-14" value="phone" style="shape=partialRectangle;connectable=0;fillColor=none;top=0;left=0;bottom=0;right=0;align=left;spacingLeft=6;overflow=hidden;whiteSpace=wrap;html=1;" vertex="1" parent="ElKn7YEhaDQzIZ9FbB-I-12">
          <mxGeometry x="30" width="90" height="30" as="geometry">
            <mxRectangle width="90" height="30" as="alternateBounds" />
          </mxGeometry>
        </mxCell>
        <mxCell id="ElKn7YEhaDQzIZ9FbB-I-15" style="shape=tableRow;horizontal=0;startSize=0;swimlaneHead=0;swimlaneBody=0;fillColor=none;collapsible=0;dropTarget=0;points=[[0,0.5],[1,0.5]];portConstraint=eastwest;top=0;left=0;right=0;bottom=0;" vertex="1" parent="ElKn7YEhaDQzIZ9FbB-I-2">
          <mxGeometry y="150" width="120" height="30" as="geometry" />
        </mxCell>
        <mxCell id="ElKn7YEhaDQzIZ9FbB-I-16" value="text" style="shape=partialRectangle;connectable=0;fillColor=none;top=0;left=0;bottom=0;right=0;editable=1;overflow=hidden;whiteSpace=wrap;html=1;" vertex="1" parent="ElKn7YEhaDQzIZ9FbB-I-15">
          <mxGeometry width="30" height="30" as="geometry">
            <mxRectangle width="30" height="30" as="alternateBounds" />
          </mxGeometry>
        </mxCell>
        <mxCell id="ElKn7YEhaDQzIZ9FbB-I-17" value="address" style="shape=partialRectangle;connectable=0;fillColor=none;top=0;left=0;bottom=0;right=0;align=left;spacingLeft=6;overflow=hidden;whiteSpace=wrap;html=1;" vertex="1" parent="ElKn7YEhaDQzIZ9FbB-I-15">
          <mxGeometry x="30" width="90" height="30" as="geometry">
            <mxRectangle width="90" height="30" as="alternateBounds" />
          </mxGeometry>
        </mxCell>
        <mxCell id="ElKn7YEhaDQzIZ9FbB-I-18" style="shape=tableRow;horizontal=0;startSize=0;swimlaneHead=0;swimlaneBody=0;fillColor=none;collapsible=0;dropTarget=0;points=[[0,0.5],[1,0.5]];portConstraint=eastwest;top=0;left=0;right=0;bottom=0;" vertex="1" parent="ElKn7YEhaDQzIZ9FbB-I-2">
          <mxGeometry y="180" width="120" height="30" as="geometry" />
        </mxCell>
        <mxCell id="ElKn7YEhaDQzIZ9FbB-I-19" value="text" style="shape=partialRectangle;connectable=0;fillColor=none;top=0;left=0;bottom=0;right=0;editable=1;overflow=hidden;whiteSpace=wrap;html=1;" vertex="1" parent="ElKn7YEhaDQzIZ9FbB-I-18">
          <mxGeometry width="30" height="30" as="geometry">
            <mxRectangle width="30" height="30" as="alternateBounds" />
          </mxGeometry>
        </mxCell>
        <mxCell id="ElKn7YEhaDQzIZ9FbB-I-20" value="rol" style="shape=partialRectangle;connectable=0;fillColor=none;top=0;left=0;bottom=0;right=0;align=left;spacingLeft=6;overflow=hidden;whiteSpace=wrap;html=1;" vertex="1" parent="ElKn7YEhaDQzIZ9FbB-I-18">
          <mxGeometry x="30" width="90" height="30" as="geometry">
            <mxRectangle width="90" height="30" as="alternateBounds" />
          </mxGeometry>
        </mxCell>
        <mxCell id="ElKn7YEhaDQzIZ9FbB-I-21" value="ORDERS" style="whiteSpace=wrap;html=1;rounded=0;shape=table;startSize=30;container=1;collapsible=1;childLayout=tableLayout;fixedRows=1;rowLines=0;fontStyle=1;resizeLast=1;fillColor=#fff2cc;strokeColor=#d6b656;" vertex="1" parent="ElKn7YEhaDQzIZ9FbB-I-1">
          <mxGeometry x="400" y="110" width="120" height="150" as="geometry">
            <mxRectangle x="562" y="100" width="90" height="30" as="alternateBounds" />
          </mxGeometry>
        </mxCell>
        <mxCell id="ElKn7YEhaDQzIZ9FbB-I-22" value="" style="shape=tableRow;horizontal=0;startSize=0;swimlaneHead=0;swimlaneBody=0;fillColor=none;collapsible=0;dropTarget=0;points=[[0,0.5],[1,0.5]];portConstraint=eastwest;top=0;left=0;right=0;bottom=1;" vertex="1" parent="ElKn7YEhaDQzIZ9FbB-I-21">
          <mxGeometry y="30" width="120" height="30" as="geometry" />
        </mxCell>
        <mxCell id="ElKn7YEhaDQzIZ9FbB-I-23" value="PK" style="shape=partialRectangle;connectable=0;fillColor=none;top=0;left=0;bottom=0;right=0;fontStyle=1;overflow=hidden;whiteSpace=wrap;html=1;" vertex="1" parent="ElKn7YEhaDQzIZ9FbB-I-22">
          <mxGeometry width="30" height="30" as="geometry">
            <mxRectangle width="30" height="30" as="alternateBounds" />
          </mxGeometry>
        </mxCell>
        <mxCell id="ElKn7YEhaDQzIZ9FbB-I-24" value="order_id" style="shape=partialRectangle;connectable=0;fillColor=none;top=0;left=0;bottom=0;right=0;align=left;spacingLeft=6;fontStyle=5;overflow=hidden;whiteSpace=wrap;html=1;" vertex="1" parent="ElKn7YEhaDQzIZ9FbB-I-22">
          <mxGeometry x="30" width="90" height="30" as="geometry">
            <mxRectangle width="90" height="30" as="alternateBounds" />
          </mxGeometry>
        </mxCell>
        <mxCell id="ElKn7YEhaDQzIZ9FbB-I-25" value="" style="shape=tableRow;horizontal=0;startSize=0;swimlaneHead=0;swimlaneBody=0;fillColor=none;collapsible=0;dropTarget=0;points=[[0,0.5],[1,0.5]];portConstraint=eastwest;top=0;left=0;right=0;bottom=0;" vertex="1" parent="ElKn7YEhaDQzIZ9FbB-I-21">
          <mxGeometry y="60" width="120" height="30" as="geometry" />
        </mxCell>
        <mxCell id="ElKn7YEhaDQzIZ9FbB-I-26" value="int8" style="shape=partialRectangle;connectable=0;fillColor=none;top=0;left=0;bottom=0;right=0;editable=1;overflow=hidden;whiteSpace=wrap;html=1;" vertex="1" parent="ElKn7YEhaDQzIZ9FbB-I-25">
          <mxGeometry width="30" height="30" as="geometry">
            <mxRectangle width="30" height="30" as="alternateBounds" />
          </mxGeometry>
        </mxCell>
        <mxCell id="ElKn7YEhaDQzIZ9FbB-I-27" value="user_id" style="shape=partialRectangle;connectable=0;fillColor=none;top=0;left=0;bottom=0;right=0;align=left;spacingLeft=6;overflow=hidden;whiteSpace=wrap;html=1;fontStyle=2" vertex="1" parent="ElKn7YEhaDQzIZ9FbB-I-25">
          <mxGeometry x="30" width="90" height="30" as="geometry">
            <mxRectangle width="90" height="30" as="alternateBounds" />
          </mxGeometry>
        </mxCell>
        <mxCell id="ElKn7YEhaDQzIZ9FbB-I-28" value="" style="shape=tableRow;horizontal=0;startSize=0;swimlaneHead=0;swimlaneBody=0;fillColor=none;collapsible=0;dropTarget=0;points=[[0,0.5],[1,0.5]];portConstraint=eastwest;top=0;left=0;right=0;bottom=0;" vertex="1" parent="ElKn7YEhaDQzIZ9FbB-I-21">
          <mxGeometry y="90" width="120" height="30" as="geometry" />
        </mxCell>
        <mxCell id="ElKn7YEhaDQzIZ9FbB-I-29" value="time" style="shape=partialRectangle;connectable=0;fillColor=none;top=0;left=0;bottom=0;right=0;editable=1;overflow=hidden;whiteSpace=wrap;html=1;" vertex="1" parent="ElKn7YEhaDQzIZ9FbB-I-28">
          <mxGeometry width="30" height="30" as="geometry">
            <mxRectangle width="30" height="30" as="alternateBounds" />
          </mxGeometry>
        </mxCell>
        <mxCell id="ElKn7YEhaDQzIZ9FbB-I-30" value="date" style="shape=partialRectangle;connectable=0;fillColor=none;top=0;left=0;bottom=0;right=0;align=left;spacingLeft=6;overflow=hidden;whiteSpace=wrap;html=1;" vertex="1" parent="ElKn7YEhaDQzIZ9FbB-I-28">
          <mxGeometry x="30" width="90" height="30" as="geometry">
            <mxRectangle width="90" height="30" as="alternateBounds" />
          </mxGeometry>
        </mxCell>
        <mxCell id="ElKn7YEhaDQzIZ9FbB-I-31" value="" style="shape=tableRow;horizontal=0;startSize=0;swimlaneHead=0;swimlaneBody=0;fillColor=none;collapsible=0;dropTarget=0;points=[[0,0.5],[1,0.5]];portConstraint=eastwest;top=0;left=0;right=0;bottom=0;" vertex="1" parent="ElKn7YEhaDQzIZ9FbB-I-21">
          <mxGeometry y="120" width="120" height="30" as="geometry" />
        </mxCell>
        <mxCell id="ElKn7YEhaDQzIZ9FbB-I-32" value="text" style="shape=partialRectangle;connectable=0;fillColor=none;top=0;left=0;bottom=0;right=0;editable=1;overflow=hidden;whiteSpace=wrap;html=1;" vertex="1" parent="ElKn7YEhaDQzIZ9FbB-I-31">
          <mxGeometry width="30" height="30" as="geometry">
            <mxRectangle width="30" height="30" as="alternateBounds" />
          </mxGeometry>
        </mxCell>
        <mxCell id="ElKn7YEhaDQzIZ9FbB-I-33" value="status" style="shape=partialRectangle;connectable=0;fillColor=none;top=0;left=0;bottom=0;right=0;align=left;spacingLeft=6;overflow=hidden;whiteSpace=wrap;html=1;" vertex="1" parent="ElKn7YEhaDQzIZ9FbB-I-31">
          <mxGeometry x="30" width="90" height="30" as="geometry">
            <mxRectangle width="90" height="30" as="alternateBounds" />
          </mxGeometry>
        </mxCell>
        <mxCell id="ElKn7YEhaDQzIZ9FbB-I-34" value="make" style="shape=rhombus;perimeter=rhombusPerimeter;whiteSpace=wrap;html=1;align=center;fillColor=#d5e8d4;strokeColor=#82b366;" vertex="1" parent="ElKn7YEhaDQzIZ9FbB-I-1">
          <mxGeometry x="400" y="360" width="120" height="60" as="geometry" />
        </mxCell>
        <mxCell id="ElKn7YEhaDQzIZ9FbB-I-35" value="SHIPMENTS" style="whiteSpace=wrap;html=1;rounded=0;shape=table;startSize=30;container=1;collapsible=1;childLayout=tableLayout;fixedRows=1;rowLines=0;fontStyle=1;resizeLast=1;fillColor=#fff2cc;strokeColor=#d6b656;" vertex="1" parent="ElKn7YEhaDQzIZ9FbB-I-1">
          <mxGeometry x="395" y="520" width="130" height="270" as="geometry" />
        </mxCell>
        <mxCell id="ElKn7YEhaDQzIZ9FbB-I-36" value="" style="shape=tableRow;horizontal=0;startSize=0;swimlaneHead=0;swimlaneBody=0;fillColor=none;collapsible=0;dropTarget=0;points=[[0,0.5],[1,0.5]];portConstraint=eastwest;top=0;left=0;right=0;bottom=1;" vertex="1" parent="ElKn7YEhaDQzIZ9FbB-I-35">
          <mxGeometry y="30" width="130" height="30" as="geometry" />
        </mxCell>
        <mxCell id="ElKn7YEhaDQzIZ9FbB-I-37" value="PK" style="shape=partialRectangle;connectable=0;fillColor=none;top=0;left=0;bottom=0;right=0;fontStyle=1;overflow=hidden;whiteSpace=wrap;html=1;" vertex="1" parent="ElKn7YEhaDQzIZ9FbB-I-36">
          <mxGeometry width="30" height="30" as="geometry">
            <mxRectangle width="30" height="30" as="alternateBounds" />
          </mxGeometry>
        </mxCell>
        <mxCell id="ElKn7YEhaDQzIZ9FbB-I-38" value="shipments_id" style="shape=partialRectangle;connectable=0;fillColor=none;top=0;left=0;bottom=0;right=0;align=left;spacingLeft=6;fontStyle=5;overflow=hidden;whiteSpace=wrap;html=1;" vertex="1" parent="ElKn7YEhaDQzIZ9FbB-I-36">
          <mxGeometry x="30" width="100" height="30" as="geometry">
            <mxRectangle width="100" height="30" as="alternateBounds" />
          </mxGeometry>
        </mxCell>
        <mxCell id="ElKn7YEhaDQzIZ9FbB-I-39" value="" style="shape=tableRow;horizontal=0;startSize=0;swimlaneHead=0;swimlaneBody=0;fillColor=none;collapsible=0;dropTarget=0;points=[[0,0.5],[1,0.5]];portConstraint=eastwest;top=0;left=0;right=0;bottom=0;" vertex="1" parent="ElKn7YEhaDQzIZ9FbB-I-35">
          <mxGeometry y="60" width="130" height="30" as="geometry" />
        </mxCell>
        <mxCell id="ElKn7YEhaDQzIZ9FbB-I-40" value="int8" style="shape=partialRectangle;connectable=0;fillColor=none;top=0;left=0;bottom=0;right=0;editable=1;overflow=hidden;whiteSpace=wrap;html=1;" vertex="1" parent="ElKn7YEhaDQzIZ9FbB-I-39">
          <mxGeometry width="30" height="30" as="geometry">
            <mxRectangle width="30" height="30" as="alternateBounds" />
          </mxGeometry>
        </mxCell>
        <mxCell id="ElKn7YEhaDQzIZ9FbB-I-41" value="order_id" style="shape=partialRectangle;connectable=0;fillColor=none;top=0;left=0;bottom=0;right=0;align=left;spacingLeft=6;overflow=hidden;whiteSpace=wrap;html=1;fontStyle=2" vertex="1" parent="ElKn7YEhaDQzIZ9FbB-I-39">
          <mxGeometry x="30" width="100" height="30" as="geometry">
            <mxRectangle width="100" height="30" as="alternateBounds" />
          </mxGeometry>
        </mxCell>
        <mxCell id="ElKn7YEhaDQzIZ9FbB-I-42" value="" style="shape=tableRow;horizontal=0;startSize=0;swimlaneHead=0;swimlaneBody=0;fillColor=none;collapsible=0;dropTarget=0;points=[[0,0.5],[1,0.5]];portConstraint=eastwest;top=0;left=0;right=0;bottom=0;" vertex="1" parent="ElKn7YEhaDQzIZ9FbB-I-35">
          <mxGeometry y="90" width="130" height="30" as="geometry" />
        </mxCell>
        <mxCell id="ElKn7YEhaDQzIZ9FbB-I-43" value="text" style="shape=partialRectangle;connectable=0;fillColor=none;top=0;left=0;bottom=0;right=0;editable=1;overflow=hidden;whiteSpace=wrap;html=1;" vertex="1" parent="ElKn7YEhaDQzIZ9FbB-I-42">
          <mxGeometry width="30" height="30" as="geometry">
            <mxRectangle width="30" height="30" as="alternateBounds" />
          </mxGeometry>
        </mxCell>
        <mxCell id="ElKn7YEhaDQzIZ9FbB-I-44" value="carrier" style="shape=partialRectangle;connectable=0;fillColor=none;top=0;left=0;bottom=0;right=0;align=left;spacingLeft=6;overflow=hidden;whiteSpace=wrap;html=1;" vertex="1" parent="ElKn7YEhaDQzIZ9FbB-I-42">
          <mxGeometry x="30" width="100" height="30" as="geometry">
            <mxRectangle width="100" height="30" as="alternateBounds" />
          </mxGeometry>
        </mxCell>
        <mxCell id="ElKn7YEhaDQzIZ9FbB-I-45" value="" style="shape=tableRow;horizontal=0;startSize=0;swimlaneHead=0;swimlaneBody=0;fillColor=none;collapsible=0;dropTarget=0;points=[[0,0.5],[1,0.5]];portConstraint=eastwest;top=0;left=0;right=0;bottom=0;" vertex="1" parent="ElKn7YEhaDQzIZ9FbB-I-35">
          <mxGeometry y="120" width="130" height="30" as="geometry" />
        </mxCell>
        <mxCell id="ElKn7YEhaDQzIZ9FbB-I-46" value="text" style="shape=partialRectangle;connectable=0;fillColor=none;top=0;left=0;bottom=0;right=0;editable=1;overflow=hidden;whiteSpace=wrap;html=1;" vertex="1" parent="ElKn7YEhaDQzIZ9FbB-I-45">
          <mxGeometry width="30" height="30" as="geometry">
            <mxRectangle width="30" height="30" as="alternateBounds" />
          </mxGeometry>
        </mxCell>
        <mxCell id="ElKn7YEhaDQzIZ9FbB-I-47" value="address" style="shape=partialRectangle;connectable=0;fillColor=none;top=0;left=0;bottom=0;right=0;align=left;spacingLeft=6;overflow=hidden;whiteSpace=wrap;html=1;" vertex="1" parent="ElKn7YEhaDQzIZ9FbB-I-45">
          <mxGeometry x="30" width="100" height="30" as="geometry">
            <mxRectangle width="100" height="30" as="alternateBounds" />
          </mxGeometry>
        </mxCell>
        <mxCell id="ElKn7YEhaDQzIZ9FbB-I-48" style="shape=tableRow;horizontal=0;startSize=0;swimlaneHead=0;swimlaneBody=0;fillColor=none;collapsible=0;dropTarget=0;points=[[0,0.5],[1,0.5]];portConstraint=eastwest;top=0;left=0;right=0;bottom=0;" vertex="1" parent="ElKn7YEhaDQzIZ9FbB-I-35">
          <mxGeometry y="150" width="130" height="30" as="geometry" />
        </mxCell>
        <mxCell id="ElKn7YEhaDQzIZ9FbB-I-49" value="text" style="shape=partialRectangle;connectable=0;fillColor=none;top=0;left=0;bottom=0;right=0;editable=1;overflow=hidden;whiteSpace=wrap;html=1;" vertex="1" parent="ElKn7YEhaDQzIZ9FbB-I-48">
          <mxGeometry width="30" height="30" as="geometry">
            <mxRectangle width="30" height="30" as="alternateBounds" />
          </mxGeometry>
        </mxCell>
        <mxCell id="ElKn7YEhaDQzIZ9FbB-I-50" value="shipment_status" style="shape=partialRectangle;connectable=0;fillColor=none;top=0;left=0;bottom=0;right=0;align=left;spacingLeft=6;overflow=hidden;whiteSpace=wrap;html=1;" vertex="1" parent="ElKn7YEhaDQzIZ9FbB-I-48">
          <mxGeometry x="30" width="100" height="30" as="geometry">
            <mxRectangle width="100" height="30" as="alternateBounds" />
          </mxGeometry>
        </mxCell>
        <mxCell id="ElKn7YEhaDQzIZ9FbB-I-51" style="shape=tableRow;horizontal=0;startSize=0;swimlaneHead=0;swimlaneBody=0;fillColor=none;collapsible=0;dropTarget=0;points=[[0,0.5],[1,0.5]];portConstraint=eastwest;top=0;left=0;right=0;bottom=0;" vertex="1" parent="ElKn7YEhaDQzIZ9FbB-I-35">
          <mxGeometry y="180" width="130" height="30" as="geometry" />
        </mxCell>
        <mxCell id="ElKn7YEhaDQzIZ9FbB-I-52" value="text" style="shape=partialRectangle;connectable=0;fillColor=none;top=0;left=0;bottom=0;right=0;editable=1;overflow=hidden;whiteSpace=wrap;html=1;" vertex="1" parent="ElKn7YEhaDQzIZ9FbB-I-51">
          <mxGeometry width="30" height="30" as="geometry">
            <mxRectangle width="30" height="30" as="alternateBounds" />
          </mxGeometry>
        </mxCell>
        <mxCell id="ElKn7YEhaDQzIZ9FbB-I-53" value="city" style="shape=partialRectangle;connectable=0;fillColor=none;top=0;left=0;bottom=0;right=0;align=left;spacingLeft=6;overflow=hidden;whiteSpace=wrap;html=1;" vertex="1" parent="ElKn7YEhaDQzIZ9FbB-I-51">
          <mxGeometry x="30" width="100" height="30" as="geometry">
            <mxRectangle width="100" height="30" as="alternateBounds" />
          </mxGeometry>
        </mxCell>
        <mxCell id="ElKn7YEhaDQzIZ9FbB-I-54" style="shape=tableRow;horizontal=0;startSize=0;swimlaneHead=0;swimlaneBody=0;fillColor=none;collapsible=0;dropTarget=0;points=[[0,0.5],[1,0.5]];portConstraint=eastwest;top=0;left=0;right=0;bottom=0;" vertex="1" parent="ElKn7YEhaDQzIZ9FbB-I-35">
          <mxGeometry y="210" width="130" height="30" as="geometry" />
        </mxCell>
        <mxCell id="ElKn7YEhaDQzIZ9FbB-I-55" value="text" style="shape=partialRectangle;connectable=0;fillColor=none;top=0;left=0;bottom=0;right=0;editable=1;overflow=hidden;whiteSpace=wrap;html=1;" vertex="1" parent="ElKn7YEhaDQzIZ9FbB-I-54">
          <mxGeometry width="30" height="30" as="geometry">
            <mxRectangle width="30" height="30" as="alternateBounds" />
          </mxGeometry>
        </mxCell>
        <mxCell id="ElKn7YEhaDQzIZ9FbB-I-56" value="postal_code" style="shape=partialRectangle;connectable=0;fillColor=none;top=0;left=0;bottom=0;right=0;align=left;spacingLeft=6;overflow=hidden;whiteSpace=wrap;html=1;" vertex="1" parent="ElKn7YEhaDQzIZ9FbB-I-54">
          <mxGeometry x="30" width="100" height="30" as="geometry">
            <mxRectangle width="100" height="30" as="alternateBounds" />
          </mxGeometry>
        </mxCell>
        <mxCell id="ElKn7YEhaDQzIZ9FbB-I-57" style="shape=tableRow;horizontal=0;startSize=0;swimlaneHead=0;swimlaneBody=0;fillColor=none;collapsible=0;dropTarget=0;points=[[0,0.5],[1,0.5]];portConstraint=eastwest;top=0;left=0;right=0;bottom=0;" vertex="1" parent="ElKn7YEhaDQzIZ9FbB-I-35">
          <mxGeometry y="240" width="130" height="30" as="geometry" />
        </mxCell>
        <mxCell id="ElKn7YEhaDQzIZ9FbB-I-58" value="text" style="shape=partialRectangle;connectable=0;fillColor=none;top=0;left=0;bottom=0;right=0;editable=1;overflow=hidden;whiteSpace=wrap;html=1;" vertex="1" parent="ElKn7YEhaDQzIZ9FbB-I-57">
          <mxGeometry width="30" height="30" as="geometry">
            <mxRectangle width="30" height="30" as="alternateBounds" />
          </mxGeometry>
        </mxCell>
        <mxCell id="ElKn7YEhaDQzIZ9FbB-I-59" value="country" style="shape=partialRectangle;connectable=0;fillColor=none;top=0;left=0;bottom=0;right=0;align=left;spacingLeft=6;overflow=hidden;whiteSpace=wrap;html=1;" vertex="1" parent="ElKn7YEhaDQzIZ9FbB-I-57">
          <mxGeometry x="30" width="100" height="30" as="geometry">
            <mxRectangle width="100" height="30" as="alternateBounds" />
          </mxGeometry>
        </mxCell>
        <mxCell id="ElKn7YEhaDQzIZ9FbB-I-60" value="make" style="shape=rhombus;perimeter=rhombusPerimeter;whiteSpace=wrap;html=1;align=center;fillColor=#d5e8d4;strokeColor=#82b366;" vertex="1" parent="ElKn7YEhaDQzIZ9FbB-I-1">
          <mxGeometry x="150" y="155" width="120" height="60" as="geometry" />
        </mxCell>
        <mxCell id="ElKn7YEhaDQzIZ9FbB-I-61" value="" style="endArrow=none;html=1;rounded=0;exitX=0;exitY=0.5;exitDx=0;exitDy=0;entryX=1;entryY=0.5;entryDx=0;entryDy=0;" edge="1" parent="ElKn7YEhaDQzIZ9FbB-I-1" source="ElKn7YEhaDQzIZ9FbB-I-60" target="ElKn7YEhaDQzIZ9FbB-I-9">
          <mxGeometry width="50" height="50" relative="1" as="geometry">
            <mxPoint x="225" y="315" as="sourcePoint" />
            <mxPoint x="275" y="265" as="targetPoint" />
          </mxGeometry>
        </mxCell>
        <mxCell id="ElKn7YEhaDQzIZ9FbB-I-62" value="1,N" style="edgeLabel;html=1;align=center;verticalAlign=middle;resizable=0;points=[];fontStyle=1;fontSize=14;" vertex="1" connectable="0" parent="ElKn7YEhaDQzIZ9FbB-I-61">
          <mxGeometry x="0.0678" relative="1" as="geometry">
            <mxPoint as="offset" />
          </mxGeometry>
        </mxCell>
        <mxCell id="ElKn7YEhaDQzIZ9FbB-I-63" value="" style="endArrow=none;html=1;rounded=0;entryX=1;entryY=0.5;entryDx=0;entryDy=0;spacingLeft=9;exitX=0;exitY=0.5;exitDx=0;exitDy=0;" edge="1" parent="ElKn7YEhaDQzIZ9FbB-I-1" source="ElKn7YEhaDQzIZ9FbB-I-25" target="ElKn7YEhaDQzIZ9FbB-I-60">
          <mxGeometry width="50" height="50" relative="1" as="geometry">
            <mxPoint x="250" y="320" as="sourcePoint" />
            <mxPoint x="440" y="190" as="targetPoint" />
          </mxGeometry>
        </mxCell>
        <mxCell id="ElKn7YEhaDQzIZ9FbB-I-64" value="1,N" style="edgeLabel;html=1;align=center;verticalAlign=middle;resizable=0;points=[];fontStyle=1;fontSize=14;" vertex="1" connectable="0" parent="ElKn7YEhaDQzIZ9FbB-I-63">
          <mxGeometry x="0.0678" relative="1" as="geometry">
            <mxPoint as="offset" />
          </mxGeometry>
        </mxCell>
        <mxCell id="ElKn7YEhaDQzIZ9FbB-I-65" value="1,N" style="endArrow=none;html=1;rounded=0;exitX=0.5;exitY=0;exitDx=0;exitDy=0;spacingLeft=9;entryX=0.498;entryY=1.008;entryDx=0;entryDy=0;entryPerimeter=0;" edge="1" parent="ElKn7YEhaDQzIZ9FbB-I-1" source="ElKn7YEhaDQzIZ9FbB-I-34" target="ElKn7YEhaDQzIZ9FbB-I-31">
          <mxGeometry width="50" height="50" relative="1" as="geometry">
            <mxPoint x="550" y="315" as="sourcePoint" />
            <mxPoint x="490" y="420" as="targetPoint" />
          </mxGeometry>
        </mxCell>
        <mxCell id="ElKn7YEhaDQzIZ9FbB-I-66" value="1,N" style="edgeLabel;html=1;align=center;verticalAlign=middle;resizable=0;points=[];fontStyle=1;fontSize=14;" vertex="1" connectable="0" parent="ElKn7YEhaDQzIZ9FbB-I-65">
          <mxGeometry x="0.0678" relative="1" as="geometry">
            <mxPoint as="offset" />
          </mxGeometry>
        </mxCell>
        <mxCell id="ElKn7YEhaDQzIZ9FbB-I-67" value="" style="endArrow=none;html=1;rounded=0;spacingLeft=9;entryX=0.5;entryY=1;entryDx=0;entryDy=0;exitX=0.5;exitY=0;exitDx=0;exitDy=0;" edge="1" parent="ElKn7YEhaDQzIZ9FbB-I-1" source="ElKn7YEhaDQzIZ9FbB-I-35" target="ElKn7YEhaDQzIZ9FbB-I-34">
          <mxGeometry width="50" height="50" relative="1" as="geometry">
            <mxPoint x="570" y="530" as="sourcePoint" />
            <mxPoint x="600" y="430" as="targetPoint" />
          </mxGeometry>
        </mxCell>
        <mxCell id="ElKn7YEhaDQzIZ9FbB-I-68" value="1,1" style="edgeLabel;html=1;align=center;verticalAlign=middle;resizable=0;points=[];fontStyle=1;fontSize=14;" vertex="1" connectable="0" parent="ElKn7YEhaDQzIZ9FbB-I-67">
          <mxGeometry x="0.0678" relative="1" as="geometry">
            <mxPoint as="offset" />
          </mxGeometry>
        </mxCell>
        <mxCell id="ElKn7YEhaDQzIZ9FbB-I-69" value="RETURNS" style="whiteSpace=wrap;html=1;rounded=0;shape=table;startSize=30;container=1;collapsible=1;childLayout=tableLayout;fixedRows=1;rowLines=0;fontStyle=1;resizeLast=1;fillColor=#fff2cc;strokeColor=#d6b656;" vertex="1" parent="ElKn7YEhaDQzIZ9FbB-I-1">
          <mxGeometry x="900" y="520" width="120" height="210" as="geometry">
            <mxRectangle x="562" y="100" width="90" height="30" as="alternateBounds" />
          </mxGeometry>
        </mxCell>
        <mxCell id="ElKn7YEhaDQzIZ9FbB-I-70" value="" style="shape=tableRow;horizontal=0;startSize=0;swimlaneHead=0;swimlaneBody=0;fillColor=none;collapsible=0;dropTarget=0;points=[[0,0.5],[1,0.5]];portConstraint=eastwest;top=0;left=0;right=0;bottom=1;" vertex="1" parent="ElKn7YEhaDQzIZ9FbB-I-69">
          <mxGeometry y="30" width="120" height="30" as="geometry" />
        </mxCell>
        <mxCell id="ElKn7YEhaDQzIZ9FbB-I-71" value="PK" style="shape=partialRectangle;connectable=0;fillColor=none;top=0;left=0;bottom=0;right=0;fontStyle=1;overflow=hidden;whiteSpace=wrap;html=1;" vertex="1" parent="ElKn7YEhaDQzIZ9FbB-I-70">
          <mxGeometry width="30" height="30" as="geometry">
            <mxRectangle width="30" height="30" as="alternateBounds" />
          </mxGeometry>
        </mxCell>
        <mxCell id="ElKn7YEhaDQzIZ9FbB-I-72" value="ID" style="shape=partialRectangle;connectable=0;fillColor=none;top=0;left=0;bottom=0;right=0;align=left;spacingLeft=6;fontStyle=5;overflow=hidden;whiteSpace=wrap;html=1;" vertex="1" parent="ElKn7YEhaDQzIZ9FbB-I-70">
          <mxGeometry x="30" width="90" height="30" as="geometry">
            <mxRectangle width="90" height="30" as="alternateBounds" />
          </mxGeometry>
        </mxCell>
        <mxCell id="ElKn7YEhaDQzIZ9FbB-I-73" value="" style="shape=tableRow;horizontal=0;startSize=0;swimlaneHead=0;swimlaneBody=0;fillColor=none;collapsible=0;dropTarget=0;points=[[0,0.5],[1,0.5]];portConstraint=eastwest;top=0;left=0;right=0;bottom=0;" vertex="1" parent="ElKn7YEhaDQzIZ9FbB-I-69">
          <mxGeometry y="60" width="120" height="30" as="geometry" />
        </mxCell>
        <mxCell id="ElKn7YEhaDQzIZ9FbB-I-74" value="int8" style="shape=partialRectangle;connectable=0;fillColor=none;top=0;left=0;bottom=0;right=0;editable=1;overflow=hidden;whiteSpace=wrap;html=1;" vertex="1" parent="ElKn7YEhaDQzIZ9FbB-I-73">
          <mxGeometry width="30" height="30" as="geometry">
            <mxRectangle width="30" height="30" as="alternateBounds" />
          </mxGeometry>
        </mxCell>
        <mxCell id="ElKn7YEhaDQzIZ9FbB-I-75" value="order_id" style="shape=partialRectangle;connectable=0;fillColor=none;top=0;left=0;bottom=0;right=0;align=left;spacingLeft=6;overflow=hidden;whiteSpace=wrap;html=1;fontStyle=2" vertex="1" parent="ElKn7YEhaDQzIZ9FbB-I-73">
          <mxGeometry x="30" width="90" height="30" as="geometry">
            <mxRectangle width="90" height="30" as="alternateBounds" />
          </mxGeometry>
        </mxCell>
        <mxCell id="ElKn7YEhaDQzIZ9FbB-I-76" value="" style="shape=tableRow;horizontal=0;startSize=0;swimlaneHead=0;swimlaneBody=0;fillColor=none;collapsible=0;dropTarget=0;points=[[0,0.5],[1,0.5]];portConstraint=eastwest;top=0;left=0;right=0;bottom=0;" vertex="1" parent="ElKn7YEhaDQzIZ9FbB-I-69">
          <mxGeometry y="90" width="120" height="30" as="geometry" />
        </mxCell>
        <mxCell id="ElKn7YEhaDQzIZ9FbB-I-77" value="int8" style="shape=partialRectangle;connectable=0;fillColor=none;top=0;left=0;bottom=0;right=0;editable=1;overflow=hidden;whiteSpace=wrap;html=1;" vertex="1" parent="ElKn7YEhaDQzIZ9FbB-I-76">
          <mxGeometry width="30" height="30" as="geometry">
            <mxRectangle width="30" height="30" as="alternateBounds" />
          </mxGeometry>
        </mxCell>
        <mxCell id="ElKn7YEhaDQzIZ9FbB-I-78" value="product_id" style="shape=partialRectangle;connectable=0;fillColor=none;top=0;left=0;bottom=0;right=0;align=left;spacingLeft=6;overflow=hidden;whiteSpace=wrap;html=1;fontStyle=2" vertex="1" parent="ElKn7YEhaDQzIZ9FbB-I-76">
          <mxGeometry x="30" width="90" height="30" as="geometry">
            <mxRectangle width="90" height="30" as="alternateBounds" />
          </mxGeometry>
        </mxCell>
        <mxCell id="ElKn7YEhaDQzIZ9FbB-I-79" value="" style="shape=tableRow;horizontal=0;startSize=0;swimlaneHead=0;swimlaneBody=0;fillColor=none;collapsible=0;dropTarget=0;points=[[0,0.5],[1,0.5]];portConstraint=eastwest;top=0;left=0;right=0;bottom=0;" vertex="1" parent="ElKn7YEhaDQzIZ9FbB-I-69">
          <mxGeometry y="120" width="120" height="30" as="geometry" />
        </mxCell>
        <mxCell id="ElKn7YEhaDQzIZ9FbB-I-80" value="text" style="shape=partialRectangle;connectable=0;fillColor=none;top=0;left=0;bottom=0;right=0;editable=1;overflow=hidden;whiteSpace=wrap;html=1;" vertex="1" parent="ElKn7YEhaDQzIZ9FbB-I-79">
          <mxGeometry width="30" height="30" as="geometry">
            <mxRectangle width="30" height="30" as="alternateBounds" />
          </mxGeometry>
        </mxCell>
        <mxCell id="ElKn7YEhaDQzIZ9FbB-I-81" value="reason" style="shape=partialRectangle;connectable=0;fillColor=none;top=0;left=0;bottom=0;right=0;align=left;spacingLeft=6;overflow=hidden;whiteSpace=wrap;html=1;" vertex="1" parent="ElKn7YEhaDQzIZ9FbB-I-79">
          <mxGeometry x="30" width="90" height="30" as="geometry">
            <mxRectangle width="90" height="30" as="alternateBounds" />
          </mxGeometry>
        </mxCell>
        <mxCell id="ElKn7YEhaDQzIZ9FbB-I-82" style="shape=tableRow;horizontal=0;startSize=0;swimlaneHead=0;swimlaneBody=0;fillColor=none;collapsible=0;dropTarget=0;points=[[0,0.5],[1,0.5]];portConstraint=eastwest;top=0;left=0;right=0;bottom=0;" vertex="1" parent="ElKn7YEhaDQzIZ9FbB-I-69">
          <mxGeometry y="150" width="120" height="30" as="geometry" />
        </mxCell>
        <mxCell id="ElKn7YEhaDQzIZ9FbB-I-83" value="text" style="shape=partialRectangle;connectable=0;fillColor=none;top=0;left=0;bottom=0;right=0;editable=1;overflow=hidden;whiteSpace=wrap;html=1;" vertex="1" parent="ElKn7YEhaDQzIZ9FbB-I-82">
          <mxGeometry width="30" height="30" as="geometry">
            <mxRectangle width="30" height="30" as="alternateBounds" />
          </mxGeometry>
        </mxCell>
        <mxCell id="ElKn7YEhaDQzIZ9FbB-I-84" value="return_status" style="shape=partialRectangle;connectable=0;fillColor=none;top=0;left=0;bottom=0;right=0;align=left;spacingLeft=6;overflow=hidden;whiteSpace=wrap;html=1;" vertex="1" parent="ElKn7YEhaDQzIZ9FbB-I-82">
          <mxGeometry x="30" width="90" height="30" as="geometry">
            <mxRectangle width="90" height="30" as="alternateBounds" />
          </mxGeometry>
        </mxCell>
        <mxCell id="ElKn7YEhaDQzIZ9FbB-I-85" style="shape=tableRow;horizontal=0;startSize=0;swimlaneHead=0;swimlaneBody=0;fillColor=none;collapsible=0;dropTarget=0;points=[[0,0.5],[1,0.5]];portConstraint=eastwest;top=0;left=0;right=0;bottom=0;" vertex="1" parent="ElKn7YEhaDQzIZ9FbB-I-69">
          <mxGeometry y="180" width="120" height="30" as="geometry" />
        </mxCell>
        <mxCell id="ElKn7YEhaDQzIZ9FbB-I-86" value="time" style="shape=partialRectangle;connectable=0;fillColor=none;top=0;left=0;bottom=0;right=0;editable=1;overflow=hidden;whiteSpace=wrap;html=1;" vertex="1" parent="ElKn7YEhaDQzIZ9FbB-I-85">
          <mxGeometry width="30" height="30" as="geometry">
            <mxRectangle width="30" height="30" as="alternateBounds" />
          </mxGeometry>
        </mxCell>
        <mxCell id="ElKn7YEhaDQzIZ9FbB-I-87" value="return_date" style="shape=partialRectangle;connectable=0;fillColor=none;top=0;left=0;bottom=0;right=0;align=left;spacingLeft=6;overflow=hidden;whiteSpace=wrap;html=1;" vertex="1" parent="ElKn7YEhaDQzIZ9FbB-I-85">
          <mxGeometry x="30" width="90" height="30" as="geometry">
            <mxRectangle width="90" height="30" as="alternateBounds" />
          </mxGeometry>
        </mxCell>
        <mxCell id="ElKn7YEhaDQzIZ9FbB-I-88" value="PRODUCTS" style="whiteSpace=wrap;html=1;rounded=0;shape=table;startSize=30;container=1;collapsible=1;childLayout=tableLayout;fixedRows=1;rowLines=0;fontStyle=1;resizeLast=1;fillColor=#fff2cc;strokeColor=#d6b656;" vertex="1" parent="ElKn7YEhaDQzIZ9FbB-I-1">
          <mxGeometry x="1400" y="110" width="120" height="150" as="geometry">
            <mxRectangle x="562" y="100" width="90" height="30" as="alternateBounds" />
          </mxGeometry>
        </mxCell>
        <mxCell id="ElKn7YEhaDQzIZ9FbB-I-89" value="" style="shape=tableRow;horizontal=0;startSize=0;swimlaneHead=0;swimlaneBody=0;fillColor=none;collapsible=0;dropTarget=0;points=[[0,0.5],[1,0.5]];portConstraint=eastwest;top=0;left=0;right=0;bottom=1;" vertex="1" parent="ElKn7YEhaDQzIZ9FbB-I-88">
          <mxGeometry y="30" width="120" height="30" as="geometry" />
        </mxCell>
        <mxCell id="ElKn7YEhaDQzIZ9FbB-I-90" value="PK" style="shape=partialRectangle;connectable=0;fillColor=none;top=0;left=0;bottom=0;right=0;fontStyle=1;overflow=hidden;whiteSpace=wrap;html=1;" vertex="1" parent="ElKn7YEhaDQzIZ9FbB-I-89">
          <mxGeometry width="30" height="30" as="geometry">
            <mxRectangle width="30" height="30" as="alternateBounds" />
          </mxGeometry>
        </mxCell>
        <mxCell id="ElKn7YEhaDQzIZ9FbB-I-91" value="product_id" style="shape=partialRectangle;connectable=0;fillColor=none;top=0;left=0;bottom=0;right=0;align=left;spacingLeft=6;fontStyle=5;overflow=hidden;whiteSpace=wrap;html=1;" vertex="1" parent="ElKn7YEhaDQzIZ9FbB-I-89">
          <mxGeometry x="30" width="90" height="30" as="geometry">
            <mxRectangle width="90" height="30" as="alternateBounds" />
          </mxGeometry>
        </mxCell>
        <mxCell id="ElKn7YEhaDQzIZ9FbB-I-92" value="" style="shape=tableRow;horizontal=0;startSize=0;swimlaneHead=0;swimlaneBody=0;fillColor=none;collapsible=0;dropTarget=0;points=[[0,0.5],[1,0.5]];portConstraint=eastwest;top=0;left=0;right=0;bottom=0;" vertex="1" parent="ElKn7YEhaDQzIZ9FbB-I-88">
          <mxGeometry y="60" width="120" height="30" as="geometry" />
        </mxCell>
        <mxCell id="ElKn7YEhaDQzIZ9FbB-I-93" value="text" style="shape=partialRectangle;connectable=0;fillColor=none;top=0;left=0;bottom=0;right=0;editable=1;overflow=hidden;whiteSpace=wrap;html=1;" vertex="1" parent="ElKn7YEhaDQzIZ9FbB-I-92">
          <mxGeometry width="30" height="30" as="geometry">
            <mxRectangle width="30" height="30" as="alternateBounds" />
          </mxGeometry>
        </mxCell>
        <mxCell id="ElKn7YEhaDQzIZ9FbB-I-94" value="name" style="shape=partialRectangle;connectable=0;fillColor=none;top=0;left=0;bottom=0;right=0;align=left;spacingLeft=6;overflow=hidden;whiteSpace=wrap;html=1;" vertex="1" parent="ElKn7YEhaDQzIZ9FbB-I-92">
          <mxGeometry x="30" width="90" height="30" as="geometry">
            <mxRectangle width="90" height="30" as="alternateBounds" />
          </mxGeometry>
        </mxCell>
        <mxCell id="ElKn7YEhaDQzIZ9FbB-I-95" value="" style="shape=tableRow;horizontal=0;startSize=0;swimlaneHead=0;swimlaneBody=0;fillColor=none;collapsible=0;dropTarget=0;points=[[0,0.5],[1,0.5]];portConstraint=eastwest;top=0;left=0;right=0;bottom=0;" vertex="1" parent="ElKn7YEhaDQzIZ9FbB-I-88">
          <mxGeometry y="90" width="120" height="30" as="geometry" />
        </mxCell>
        <mxCell id="ElKn7YEhaDQzIZ9FbB-I-96" value="text" style="shape=partialRectangle;connectable=0;fillColor=none;top=0;left=0;bottom=0;right=0;editable=1;overflow=hidden;whiteSpace=wrap;html=1;" vertex="1" parent="ElKn7YEhaDQzIZ9FbB-I-95">
          <mxGeometry width="30" height="30" as="geometry">
            <mxRectangle width="30" height="30" as="alternateBounds" />
          </mxGeometry>
        </mxCell>
        <mxCell id="ElKn7YEhaDQzIZ9FbB-I-97" value="description" style="shape=partialRectangle;connectable=0;fillColor=none;top=0;left=0;bottom=0;right=0;align=left;spacingLeft=6;overflow=hidden;whiteSpace=wrap;html=1;" vertex="1" parent="ElKn7YEhaDQzIZ9FbB-I-95">
          <mxGeometry x="30" width="90" height="30" as="geometry">
            <mxRectangle width="90" height="30" as="alternateBounds" />
          </mxGeometry>
        </mxCell>
        <mxCell id="ElKn7YEhaDQzIZ9FbB-I-98" value="" style="shape=tableRow;horizontal=0;startSize=0;swimlaneHead=0;swimlaneBody=0;fillColor=none;collapsible=0;dropTarget=0;points=[[0,0.5],[1,0.5]];portConstraint=eastwest;top=0;left=0;right=0;bottom=0;" vertex="1" parent="ElKn7YEhaDQzIZ9FbB-I-88">
          <mxGeometry y="120" width="120" height="30" as="geometry" />
        </mxCell>
        <mxCell id="ElKn7YEhaDQzIZ9FbB-I-99" value="int" style="shape=partialRectangle;connectable=0;fillColor=none;top=0;left=0;bottom=0;right=0;editable=1;overflow=hidden;whiteSpace=wrap;html=1;" vertex="1" parent="ElKn7YEhaDQzIZ9FbB-I-98">
          <mxGeometry width="30" height="30" as="geometry">
            <mxRectangle width="30" height="30" as="alternateBounds" />
          </mxGeometry>
        </mxCell>
        <mxCell id="ElKn7YEhaDQzIZ9FbB-I-100" value="price" style="shape=partialRectangle;connectable=0;fillColor=none;top=0;left=0;bottom=0;right=0;align=left;spacingLeft=6;overflow=hidden;whiteSpace=wrap;html=1;" vertex="1" parent="ElKn7YEhaDQzIZ9FbB-I-98">
          <mxGeometry x="30" width="90" height="30" as="geometry">
            <mxRectangle width="90" height="30" as="alternateBounds" />
          </mxGeometry>
        </mxCell>
        <mxCell id="ElKn7YEhaDQzIZ9FbB-I-101" value="" style="endArrow=none;html=1;rounded=0;spacingLeft=9;exitX=0.5;exitY=1;exitDx=0;exitDy=0;entryX=0.5;entryY=0;entryDx=0;entryDy=0;" edge="1" parent="ElKn7YEhaDQzIZ9FbB-I-1" source="ElKn7YEhaDQzIZ9FbB-I-113" target="ElKn7YEhaDQzIZ9FbB-I-88">
          <mxGeometry width="50" height="50" relative="1" as="geometry">
            <mxPoint x="1640" y="-132" as="sourcePoint" />
            <mxPoint x="1441.3199999999997" y="-233.30999999999995" as="targetPoint" />
          </mxGeometry>
        </mxCell>
        <mxCell id="ElKn7YEhaDQzIZ9FbB-I-102" value="1,N" style="edgeLabel;html=1;align=center;verticalAlign=middle;resizable=0;points=[];fontStyle=1;fontSize=14;" vertex="1" connectable="0" parent="ElKn7YEhaDQzIZ9FbB-I-101">
          <mxGeometry x="0.0678" relative="1" as="geometry">
            <mxPoint as="offset" />
          </mxGeometry>
        </mxCell>
        <mxCell id="ElKn7YEhaDQzIZ9FbB-I-103" value="CATEGORIES" style="whiteSpace=wrap;html=1;rounded=0;shape=table;startSize=30;container=1;collapsible=1;childLayout=tableLayout;fixedRows=1;rowLines=0;fontStyle=1;resizeLast=1;fillColor=#fff2cc;strokeColor=#d6b656;" vertex="1" parent="ElKn7YEhaDQzIZ9FbB-I-1">
          <mxGeometry x="1400" y="-250" width="120" height="120" as="geometry">
            <mxRectangle x="562" y="100" width="90" height="30" as="alternateBounds" />
          </mxGeometry>
        </mxCell>
        <mxCell id="ElKn7YEhaDQzIZ9FbB-I-104" value="" style="shape=tableRow;horizontal=0;startSize=0;swimlaneHead=0;swimlaneBody=0;fillColor=none;collapsible=0;dropTarget=0;points=[[0,0.5],[1,0.5]];portConstraint=eastwest;top=0;left=0;right=0;bottom=1;" vertex="1" parent="ElKn7YEhaDQzIZ9FbB-I-103">
          <mxGeometry y="30" width="120" height="30" as="geometry" />
        </mxCell>
        <mxCell id="ElKn7YEhaDQzIZ9FbB-I-105" value="PK" style="shape=partialRectangle;connectable=0;fillColor=none;top=0;left=0;bottom=0;right=0;fontStyle=1;overflow=hidden;whiteSpace=wrap;html=1;" vertex="1" parent="ElKn7YEhaDQzIZ9FbB-I-104">
          <mxGeometry width="30" height="30" as="geometry">
            <mxRectangle width="30" height="30" as="alternateBounds" />
          </mxGeometry>
        </mxCell>
        <mxCell id="ElKn7YEhaDQzIZ9FbB-I-106" value="categorie_id" style="shape=partialRectangle;connectable=0;fillColor=none;top=0;left=0;bottom=0;right=0;align=left;spacingLeft=6;fontStyle=5;overflow=hidden;whiteSpace=wrap;html=1;" vertex="1" parent="ElKn7YEhaDQzIZ9FbB-I-104">
          <mxGeometry x="30" width="90" height="30" as="geometry">
            <mxRectangle width="90" height="30" as="alternateBounds" />
          </mxGeometry>
        </mxCell>
        <mxCell id="ElKn7YEhaDQzIZ9FbB-I-107" value="" style="shape=tableRow;horizontal=0;startSize=0;swimlaneHead=0;swimlaneBody=0;fillColor=none;collapsible=0;dropTarget=0;points=[[0,0.5],[1,0.5]];portConstraint=eastwest;top=0;left=0;right=0;bottom=0;" vertex="1" parent="ElKn7YEhaDQzIZ9FbB-I-103">
          <mxGeometry y="60" width="120" height="30" as="geometry" />
        </mxCell>
        <mxCell id="ElKn7YEhaDQzIZ9FbB-I-108" value="text" style="shape=partialRectangle;connectable=0;fillColor=none;top=0;left=0;bottom=0;right=0;editable=1;overflow=hidden;whiteSpace=wrap;html=1;" vertex="1" parent="ElKn7YEhaDQzIZ9FbB-I-107">
          <mxGeometry width="30" height="30" as="geometry">
            <mxRectangle width="30" height="30" as="alternateBounds" />
          </mxGeometry>
        </mxCell>
        <mxCell id="ElKn7YEhaDQzIZ9FbB-I-109" value="name" style="shape=partialRectangle;connectable=0;fillColor=none;top=0;left=0;bottom=0;right=0;align=left;spacingLeft=6;overflow=hidden;whiteSpace=wrap;html=1;" vertex="1" parent="ElKn7YEhaDQzIZ9FbB-I-107">
          <mxGeometry x="30" width="90" height="30" as="geometry">
            <mxRectangle width="90" height="30" as="alternateBounds" />
          </mxGeometry>
        </mxCell>
        <mxCell id="ElKn7YEhaDQzIZ9FbB-I-110" value="" style="shape=tableRow;horizontal=0;startSize=0;swimlaneHead=0;swimlaneBody=0;fillColor=none;collapsible=0;dropTarget=0;points=[[0,0.5],[1,0.5]];portConstraint=eastwest;top=0;left=0;right=0;bottom=0;" vertex="1" parent="ElKn7YEhaDQzIZ9FbB-I-103">
          <mxGeometry y="90" width="120" height="30" as="geometry" />
        </mxCell>
        <mxCell id="ElKn7YEhaDQzIZ9FbB-I-111" value="text" style="shape=partialRectangle;connectable=0;fillColor=none;top=0;left=0;bottom=0;right=0;editable=1;overflow=hidden;whiteSpace=wrap;html=1;" vertex="1" parent="ElKn7YEhaDQzIZ9FbB-I-110">
          <mxGeometry width="30" height="30" as="geometry">
            <mxRectangle width="30" height="30" as="alternateBounds" />
          </mxGeometry>
        </mxCell>
        <mxCell id="ElKn7YEhaDQzIZ9FbB-I-112" value="description" style="shape=partialRectangle;connectable=0;fillColor=none;top=0;left=0;bottom=0;right=0;align=left;spacingLeft=6;overflow=hidden;whiteSpace=wrap;html=1;" vertex="1" parent="ElKn7YEhaDQzIZ9FbB-I-110">
          <mxGeometry x="30" width="90" height="30" as="geometry">
            <mxRectangle width="90" height="30" as="alternateBounds" />
          </mxGeometry>
        </mxCell>
        <mxCell id="ElKn7YEhaDQzIZ9FbB-I-113" value="have" style="shape=rhombus;perimeter=rhombusPerimeter;whiteSpace=wrap;html=1;align=center;fillColor=#d5e8d4;strokeColor=#82b366;" vertex="1" parent="ElKn7YEhaDQzIZ9FbB-I-1">
          <mxGeometry x="1400" y="-50" width="120" height="60" as="geometry" />
        </mxCell>
        <mxCell id="ElKn7YEhaDQzIZ9FbB-I-114" value="" style="endArrow=none;html=1;rounded=0;spacingLeft=9;entryX=0.5;entryY=0;entryDx=0;entryDy=0;exitX=0.497;exitY=1.013;exitDx=0;exitDy=0;exitPerimeter=0;" edge="1" parent="ElKn7YEhaDQzIZ9FbB-I-1" source="ElKn7YEhaDQzIZ9FbB-I-110" target="ElKn7YEhaDQzIZ9FbB-I-113">
          <mxGeometry width="50" height="50" relative="1" as="geometry">
            <mxPoint x="1440" y="-110" as="sourcePoint" />
            <mxPoint x="1700" y="-192" as="targetPoint" />
          </mxGeometry>
        </mxCell>
        <mxCell id="ElKn7YEhaDQzIZ9FbB-I-115" value="1,1" style="edgeLabel;html=1;align=center;verticalAlign=middle;resizable=0;points=[];fontStyle=1;fontSize=14;" vertex="1" connectable="0" parent="ElKn7YEhaDQzIZ9FbB-I-114">
          <mxGeometry x="0.0678" relative="1" as="geometry">
            <mxPoint as="offset" />
          </mxGeometry>
        </mxCell>
        <mxCell id="ElKn7YEhaDQzIZ9FbB-I-116" value="" style="endArrow=none;html=1;rounded=0;spacingLeft=9;entryX=0;entryY=0.5;entryDx=0;entryDy=0;exitX=1;exitY=0.5;exitDx=0;exitDy=0;" edge="1" parent="ElKn7YEhaDQzIZ9FbB-I-1" source="ElKn7YEhaDQzIZ9FbB-I-92" target="ElKn7YEhaDQzIZ9FbB-I-118">
          <mxGeometry width="50" height="50" relative="1" as="geometry">
            <mxPoint x="1390" y="120" as="sourcePoint" />
            <mxPoint x="1420" y="30" as="targetPoint" />
          </mxGeometry>
        </mxCell>
        <mxCell id="ElKn7YEhaDQzIZ9FbB-I-117" value="1,N" style="edgeLabel;html=1;align=center;verticalAlign=middle;resizable=0;points=[];fontStyle=1;fontSize=14;" vertex="1" connectable="0" parent="ElKn7YEhaDQzIZ9FbB-I-116">
          <mxGeometry x="0.0678" relative="1" as="geometry">
            <mxPoint as="offset" />
          </mxGeometry>
        </mxCell>
        <mxCell id="ElKn7YEhaDQzIZ9FbB-I-118" value="have" style="shape=rhombus;perimeter=rhombusPerimeter;whiteSpace=wrap;html=1;align=center;fillColor=#d5e8d4;strokeColor=#82b366;" vertex="1" parent="ElKn7YEhaDQzIZ9FbB-I-1">
          <mxGeometry x="1650" y="155" width="120" height="60" as="geometry" />
        </mxCell>
        <mxCell id="ElKn7YEhaDQzIZ9FbB-I-119" value="" style="endArrow=none;html=1;rounded=0;exitX=1;exitY=0.5;exitDx=0;exitDy=0;spacingLeft=9;entryX=0;entryY=0.5;entryDx=0;entryDy=0;" edge="1" parent="ElKn7YEhaDQzIZ9FbB-I-1" source="ElKn7YEhaDQzIZ9FbB-I-118" target="ElKn7YEhaDQzIZ9FbB-I-122">
          <mxGeometry width="50" height="50" relative="1" as="geometry">
            <mxPoint x="1540" y="-40" as="sourcePoint" />
            <mxPoint x="1610" y="120" as="targetPoint" />
          </mxGeometry>
        </mxCell>
        <mxCell id="ElKn7YEhaDQzIZ9FbB-I-120" value="1,M" style="edgeLabel;html=1;align=center;verticalAlign=middle;resizable=0;points=[];fontStyle=1;fontSize=14;" vertex="1" connectable="0" parent="ElKn7YEhaDQzIZ9FbB-I-119">
          <mxGeometry x="0.0678" relative="1" as="geometry">
            <mxPoint as="offset" />
          </mxGeometry>
        </mxCell>
        <mxCell id="ElKn7YEhaDQzIZ9FbB-I-121" value="INGREDIENTS" style="whiteSpace=wrap;html=1;rounded=0;shape=table;startSize=30;container=1;collapsible=1;childLayout=tableLayout;fixedRows=1;rowLines=0;fontStyle=1;resizeLast=1;fillColor=#fff2cc;strokeColor=#d6b656;" vertex="1" parent="ElKn7YEhaDQzIZ9FbB-I-1">
          <mxGeometry x="1900" y="140" width="120" height="120" as="geometry">
            <mxRectangle x="562" y="100" width="90" height="30" as="alternateBounds" />
          </mxGeometry>
        </mxCell>
        <mxCell id="ElKn7YEhaDQzIZ9FbB-I-122" value="" style="shape=tableRow;horizontal=0;startSize=0;swimlaneHead=0;swimlaneBody=0;fillColor=none;collapsible=0;dropTarget=0;points=[[0,0.5],[1,0.5]];portConstraint=eastwest;top=0;left=0;right=0;bottom=1;" vertex="1" parent="ElKn7YEhaDQzIZ9FbB-I-121">
          <mxGeometry y="30" width="120" height="30" as="geometry" />
        </mxCell>
        <mxCell id="ElKn7YEhaDQzIZ9FbB-I-123" value="PK" style="shape=partialRectangle;connectable=0;fillColor=none;top=0;left=0;bottom=0;right=0;fontStyle=1;overflow=hidden;whiteSpace=wrap;html=1;" vertex="1" parent="ElKn7YEhaDQzIZ9FbB-I-122">
          <mxGeometry width="30" height="30" as="geometry">
            <mxRectangle width="30" height="30" as="alternateBounds" />
          </mxGeometry>
        </mxCell>
        <mxCell id="ElKn7YEhaDQzIZ9FbB-I-124" value="ingredient_id" style="shape=partialRectangle;connectable=0;fillColor=none;top=0;left=0;bottom=0;right=0;align=left;spacingLeft=6;fontStyle=5;overflow=hidden;whiteSpace=wrap;html=1;" vertex="1" parent="ElKn7YEhaDQzIZ9FbB-I-122">
          <mxGeometry x="30" width="90" height="30" as="geometry">
            <mxRectangle width="90" height="30" as="alternateBounds" />
          </mxGeometry>
        </mxCell>
        <mxCell id="ElKn7YEhaDQzIZ9FbB-I-125" value="" style="shape=tableRow;horizontal=0;startSize=0;swimlaneHead=0;swimlaneBody=0;fillColor=none;collapsible=0;dropTarget=0;points=[[0,0.5],[1,0.5]];portConstraint=eastwest;top=0;left=0;right=0;bottom=0;" vertex="1" parent="ElKn7YEhaDQzIZ9FbB-I-121">
          <mxGeometry y="60" width="120" height="30" as="geometry" />
        </mxCell>
        <mxCell id="ElKn7YEhaDQzIZ9FbB-I-126" value="text" style="shape=partialRectangle;connectable=0;fillColor=none;top=0;left=0;bottom=0;right=0;editable=1;overflow=hidden;whiteSpace=wrap;html=1;" vertex="1" parent="ElKn7YEhaDQzIZ9FbB-I-125">
          <mxGeometry width="30" height="30" as="geometry">
            <mxRectangle width="30" height="30" as="alternateBounds" />
          </mxGeometry>
        </mxCell>
        <mxCell id="ElKn7YEhaDQzIZ9FbB-I-127" value="name" style="shape=partialRectangle;connectable=0;fillColor=none;top=0;left=0;bottom=0;right=0;align=left;spacingLeft=6;overflow=hidden;whiteSpace=wrap;html=1;" vertex="1" parent="ElKn7YEhaDQzIZ9FbB-I-125">
          <mxGeometry x="30" width="90" height="30" as="geometry">
            <mxRectangle width="90" height="30" as="alternateBounds" />
          </mxGeometry>
        </mxCell>
        <mxCell id="ElKn7YEhaDQzIZ9FbB-I-128" value="" style="shape=tableRow;horizontal=0;startSize=0;swimlaneHead=0;swimlaneBody=0;fillColor=none;collapsible=0;dropTarget=0;points=[[0,0.5],[1,0.5]];portConstraint=eastwest;top=0;left=0;right=0;bottom=0;" vertex="1" parent="ElKn7YEhaDQzIZ9FbB-I-121">
          <mxGeometry y="90" width="120" height="30" as="geometry" />
        </mxCell>
        <mxCell id="ElKn7YEhaDQzIZ9FbB-I-129" value="text" style="shape=partialRectangle;connectable=0;fillColor=none;top=0;left=0;bottom=0;right=0;editable=1;overflow=hidden;whiteSpace=wrap;html=1;" vertex="1" parent="ElKn7YEhaDQzIZ9FbB-I-128">
          <mxGeometry width="30" height="30" as="geometry">
            <mxRectangle width="30" height="30" as="alternateBounds" />
          </mxGeometry>
        </mxCell>
        <mxCell id="ElKn7YEhaDQzIZ9FbB-I-130" value="description" style="shape=partialRectangle;connectable=0;fillColor=none;top=0;left=0;bottom=0;right=0;align=left;spacingLeft=6;overflow=hidden;whiteSpace=wrap;html=1;" vertex="1" parent="ElKn7YEhaDQzIZ9FbB-I-128">
          <mxGeometry x="30" width="90" height="30" as="geometry">
            <mxRectangle width="90" height="30" as="alternateBounds" />
          </mxGeometry>
        </mxCell>
        <mxCell id="ElKn7YEhaDQzIZ9FbB-I-131" value="DISCOUNTS" style="whiteSpace=wrap;html=1;rounded=0;shape=table;startSize=30;container=1;collapsible=1;childLayout=tableLayout;fixedRows=1;rowLines=0;fontStyle=1;resizeLast=1;fillColor=#fff2cc;strokeColor=#d6b656;" vertex="1" parent="ElKn7YEhaDQzIZ9FbB-I-1">
          <mxGeometry x="900" y="-230" width="120" height="210" as="geometry">
            <mxRectangle x="562" y="100" width="90" height="30" as="alternateBounds" />
          </mxGeometry>
        </mxCell>
        <mxCell id="ElKn7YEhaDQzIZ9FbB-I-132" value="" style="shape=tableRow;horizontal=0;startSize=0;swimlaneHead=0;swimlaneBody=0;fillColor=none;collapsible=0;dropTarget=0;points=[[0,0.5],[1,0.5]];portConstraint=eastwest;top=0;left=0;right=0;bottom=1;" vertex="1" parent="ElKn7YEhaDQzIZ9FbB-I-131">
          <mxGeometry y="30" width="120" height="30" as="geometry" />
        </mxCell>
        <mxCell id="ElKn7YEhaDQzIZ9FbB-I-133" value="PK" style="shape=partialRectangle;connectable=0;fillColor=none;top=0;left=0;bottom=0;right=0;fontStyle=1;overflow=hidden;whiteSpace=wrap;html=1;" vertex="1" parent="ElKn7YEhaDQzIZ9FbB-I-132">
          <mxGeometry width="30" height="30" as="geometry">
            <mxRectangle width="30" height="30" as="alternateBounds" />
          </mxGeometry>
        </mxCell>
        <mxCell id="ElKn7YEhaDQzIZ9FbB-I-134" value="discount_id" style="shape=partialRectangle;connectable=0;fillColor=none;top=0;left=0;bottom=0;right=0;align=left;spacingLeft=6;fontStyle=5;overflow=hidden;whiteSpace=wrap;html=1;" vertex="1" parent="ElKn7YEhaDQzIZ9FbB-I-132">
          <mxGeometry x="30" width="90" height="30" as="geometry">
            <mxRectangle width="90" height="30" as="alternateBounds" />
          </mxGeometry>
        </mxCell>
        <mxCell id="ElKn7YEhaDQzIZ9FbB-I-135" style="shape=tableRow;horizontal=0;startSize=0;swimlaneHead=0;swimlaneBody=0;fillColor=none;collapsible=0;dropTarget=0;points=[[0,0.5],[1,0.5]];portConstraint=eastwest;top=0;left=0;right=0;bottom=0;" vertex="1" parent="ElKn7YEhaDQzIZ9FbB-I-131">
          <mxGeometry y="60" width="120" height="30" as="geometry" />
        </mxCell>
        <mxCell id="ElKn7YEhaDQzIZ9FbB-I-136" value="int8" style="shape=partialRectangle;connectable=0;fillColor=none;top=0;left=0;bottom=0;right=0;editable=1;overflow=hidden;whiteSpace=wrap;html=1;" vertex="1" parent="ElKn7YEhaDQzIZ9FbB-I-135">
          <mxGeometry width="30" height="30" as="geometry">
            <mxRectangle width="30" height="30" as="alternateBounds" />
          </mxGeometry>
        </mxCell>
        <mxCell id="ElKn7YEhaDQzIZ9FbB-I-137" value="order_id" style="shape=partialRectangle;connectable=0;fillColor=none;top=0;left=0;bottom=0;right=0;align=left;spacingLeft=6;overflow=hidden;whiteSpace=wrap;html=1;fontStyle=2" vertex="1" parent="ElKn7YEhaDQzIZ9FbB-I-135">
          <mxGeometry x="30" width="90" height="30" as="geometry">
            <mxRectangle width="90" height="30" as="alternateBounds" />
          </mxGeometry>
        </mxCell>
        <mxCell id="ElKn7YEhaDQzIZ9FbB-I-138" value="" style="shape=tableRow;horizontal=0;startSize=0;swimlaneHead=0;swimlaneBody=0;fillColor=none;collapsible=0;dropTarget=0;points=[[0,0.5],[1,0.5]];portConstraint=eastwest;top=0;left=0;right=0;bottom=0;" vertex="1" parent="ElKn7YEhaDQzIZ9FbB-I-131">
          <mxGeometry y="90" width="120" height="30" as="geometry" />
        </mxCell>
        <mxCell id="ElKn7YEhaDQzIZ9FbB-I-139" value="text" style="shape=partialRectangle;connectable=0;fillColor=none;top=0;left=0;bottom=0;right=0;editable=1;overflow=hidden;whiteSpace=wrap;html=1;" vertex="1" parent="ElKn7YEhaDQzIZ9FbB-I-138">
          <mxGeometry width="30" height="30" as="geometry">
            <mxRectangle width="30" height="30" as="alternateBounds" />
          </mxGeometry>
        </mxCell>
        <mxCell id="ElKn7YEhaDQzIZ9FbB-I-140" value="name" style="shape=partialRectangle;connectable=0;fillColor=none;top=0;left=0;bottom=0;right=0;align=left;spacingLeft=6;overflow=hidden;whiteSpace=wrap;html=1;" vertex="1" parent="ElKn7YEhaDQzIZ9FbB-I-138">
          <mxGeometry x="30" width="90" height="30" as="geometry">
            <mxRectangle width="90" height="30" as="alternateBounds" />
          </mxGeometry>
        </mxCell>
        <mxCell id="ElKn7YEhaDQzIZ9FbB-I-141" value="" style="shape=tableRow;horizontal=0;startSize=0;swimlaneHead=0;swimlaneBody=0;fillColor=none;collapsible=0;dropTarget=0;points=[[0,0.5],[1,0.5]];portConstraint=eastwest;top=0;left=0;right=0;bottom=0;" vertex="1" parent="ElKn7YEhaDQzIZ9FbB-I-131">
          <mxGeometry y="120" width="120" height="30" as="geometry" />
        </mxCell>
        <mxCell id="ElKn7YEhaDQzIZ9FbB-I-142" value="text" style="shape=partialRectangle;connectable=0;fillColor=none;top=0;left=0;bottom=0;right=0;editable=1;overflow=hidden;whiteSpace=wrap;html=1;" vertex="1" parent="ElKn7YEhaDQzIZ9FbB-I-141">
          <mxGeometry width="30" height="30" as="geometry">
            <mxRectangle width="30" height="30" as="alternateBounds" />
          </mxGeometry>
        </mxCell>
        <mxCell id="ElKn7YEhaDQzIZ9FbB-I-143" value="description" style="shape=partialRectangle;connectable=0;fillColor=none;top=0;left=0;bottom=0;right=0;align=left;spacingLeft=6;overflow=hidden;whiteSpace=wrap;html=1;" vertex="1" parent="ElKn7YEhaDQzIZ9FbB-I-141">
          <mxGeometry x="30" width="90" height="30" as="geometry">
            <mxRectangle width="90" height="30" as="alternateBounds" />
          </mxGeometry>
        </mxCell>
        <mxCell id="ElKn7YEhaDQzIZ9FbB-I-144" value="" style="shape=tableRow;horizontal=0;startSize=0;swimlaneHead=0;swimlaneBody=0;fillColor=none;collapsible=0;dropTarget=0;points=[[0,0.5],[1,0.5]];portConstraint=eastwest;top=0;left=0;right=0;bottom=0;" vertex="1" parent="ElKn7YEhaDQzIZ9FbB-I-131">
          <mxGeometry y="150" width="120" height="30" as="geometry" />
        </mxCell>
        <mxCell id="ElKn7YEhaDQzIZ9FbB-I-145" value="time" style="shape=partialRectangle;connectable=0;fillColor=none;top=0;left=0;bottom=0;right=0;editable=1;overflow=hidden;whiteSpace=wrap;html=1;" vertex="1" parent="ElKn7YEhaDQzIZ9FbB-I-144">
          <mxGeometry width="30" height="30" as="geometry">
            <mxRectangle width="30" height="30" as="alternateBounds" />
          </mxGeometry>
        </mxCell>
        <mxCell id="ElKn7YEhaDQzIZ9FbB-I-146" value="start_date" style="shape=partialRectangle;connectable=0;fillColor=none;top=0;left=0;bottom=0;right=0;align=left;spacingLeft=6;overflow=hidden;whiteSpace=wrap;html=1;" vertex="1" parent="ElKn7YEhaDQzIZ9FbB-I-144">
          <mxGeometry x="30" width="90" height="30" as="geometry">
            <mxRectangle width="90" height="30" as="alternateBounds" />
          </mxGeometry>
        </mxCell>
        <mxCell id="ElKn7YEhaDQzIZ9FbB-I-147" style="shape=tableRow;horizontal=0;startSize=0;swimlaneHead=0;swimlaneBody=0;fillColor=none;collapsible=0;dropTarget=0;points=[[0,0.5],[1,0.5]];portConstraint=eastwest;top=0;left=0;right=0;bottom=0;" vertex="1" parent="ElKn7YEhaDQzIZ9FbB-I-131">
          <mxGeometry y="180" width="120" height="30" as="geometry" />
        </mxCell>
        <mxCell id="ElKn7YEhaDQzIZ9FbB-I-148" value="time" style="shape=partialRectangle;connectable=0;fillColor=none;top=0;left=0;bottom=0;right=0;editable=1;overflow=hidden;whiteSpace=wrap;html=1;" vertex="1" parent="ElKn7YEhaDQzIZ9FbB-I-147">
          <mxGeometry width="30" height="30" as="geometry">
            <mxRectangle width="30" height="30" as="alternateBounds" />
          </mxGeometry>
        </mxCell>
        <mxCell id="ElKn7YEhaDQzIZ9FbB-I-149" value="end_date" style="shape=partialRectangle;connectable=0;fillColor=none;top=0;left=0;bottom=0;right=0;align=left;spacingLeft=6;overflow=hidden;whiteSpace=wrap;html=1;" vertex="1" parent="ElKn7YEhaDQzIZ9FbB-I-147">
          <mxGeometry x="30" width="90" height="30" as="geometry">
            <mxRectangle width="90" height="30" as="alternateBounds" />
          </mxGeometry>
        </mxCell>
        <mxCell id="ElKn7YEhaDQzIZ9FbB-I-150" value="ORDERS_DETAILS" style="whiteSpace=wrap;html=1;rounded=0;shape=table;startSize=30;container=1;collapsible=1;childLayout=tableLayout;fixedRows=1;rowLines=0;fontStyle=1;resizeLast=1;fillColor=#fff2cc;strokeColor=#d6b656;" vertex="1" parent="ElKn7YEhaDQzIZ9FbB-I-1">
          <mxGeometry x="1310" y="550" width="120" height="150" as="geometry">
            <mxRectangle x="562" y="100" width="90" height="30" as="alternateBounds" />
          </mxGeometry>
        </mxCell>
        <mxCell id="ElKn7YEhaDQzIZ9FbB-I-151" value="" style="shape=tableRow;horizontal=0;startSize=0;swimlaneHead=0;swimlaneBody=0;fillColor=none;collapsible=0;dropTarget=0;points=[[0,0.5],[1,0.5]];portConstraint=eastwest;top=0;left=0;right=0;bottom=1;" vertex="1" parent="ElKn7YEhaDQzIZ9FbB-I-150">
          <mxGeometry y="30" width="120" height="30" as="geometry" />
        </mxCell>
        <mxCell id="ElKn7YEhaDQzIZ9FbB-I-152" value="PK" style="shape=partialRectangle;connectable=0;fillColor=none;top=0;left=0;bottom=0;right=0;fontStyle=1;overflow=hidden;whiteSpace=wrap;html=1;" vertex="1" parent="ElKn7YEhaDQzIZ9FbB-I-151">
          <mxGeometry width="30" height="30" as="geometry">
            <mxRectangle width="30" height="30" as="alternateBounds" />
          </mxGeometry>
        </mxCell>
        <mxCell id="ElKn7YEhaDQzIZ9FbB-I-153" value="order_id" style="shape=partialRectangle;connectable=0;fillColor=none;top=0;left=0;bottom=0;right=0;align=left;spacingLeft=6;fontStyle=5;overflow=hidden;whiteSpace=wrap;html=1;" vertex="1" parent="ElKn7YEhaDQzIZ9FbB-I-151">
          <mxGeometry x="30" width="90" height="30" as="geometry">
            <mxRectangle width="90" height="30" as="alternateBounds" />
          </mxGeometry>
        </mxCell>
        <mxCell id="ElKn7YEhaDQzIZ9FbB-I-154" value="" style="shape=tableRow;horizontal=0;startSize=0;swimlaneHead=0;swimlaneBody=0;fillColor=none;collapsible=0;dropTarget=0;points=[[0,0.5],[1,0.5]];portConstraint=eastwest;top=0;left=0;right=0;bottom=0;" vertex="1" parent="ElKn7YEhaDQzIZ9FbB-I-150">
          <mxGeometry y="60" width="120" height="30" as="geometry" />
        </mxCell>
        <mxCell id="ElKn7YEhaDQzIZ9FbB-I-155" value="int8" style="shape=partialRectangle;connectable=0;fillColor=none;top=0;left=0;bottom=0;right=0;editable=1;overflow=hidden;whiteSpace=wrap;html=1;" vertex="1" parent="ElKn7YEhaDQzIZ9FbB-I-154">
          <mxGeometry width="30" height="30" as="geometry">
            <mxRectangle width="30" height="30" as="alternateBounds" />
          </mxGeometry>
        </mxCell>
        <mxCell id="ElKn7YEhaDQzIZ9FbB-I-156" value="user_id" style="shape=partialRectangle;connectable=0;fillColor=none;top=0;left=0;bottom=0;right=0;align=left;spacingLeft=6;overflow=hidden;whiteSpace=wrap;html=1;fontStyle=2" vertex="1" parent="ElKn7YEhaDQzIZ9FbB-I-154">
          <mxGeometry x="30" width="90" height="30" as="geometry">
            <mxRectangle width="90" height="30" as="alternateBounds" />
          </mxGeometry>
        </mxCell>
        <mxCell id="ElKn7YEhaDQzIZ9FbB-I-157" value="" style="shape=tableRow;horizontal=0;startSize=0;swimlaneHead=0;swimlaneBody=0;fillColor=none;collapsible=0;dropTarget=0;points=[[0,0.5],[1,0.5]];portConstraint=eastwest;top=0;left=0;right=0;bottom=0;" vertex="1" parent="ElKn7YEhaDQzIZ9FbB-I-150">
          <mxGeometry y="90" width="120" height="30" as="geometry" />
        </mxCell>
        <mxCell id="ElKn7YEhaDQzIZ9FbB-I-158" value="time" style="shape=partialRectangle;connectable=0;fillColor=none;top=0;left=0;bottom=0;right=0;editable=1;overflow=hidden;whiteSpace=wrap;html=1;" vertex="1" parent="ElKn7YEhaDQzIZ9FbB-I-157">
          <mxGeometry width="30" height="30" as="geometry">
            <mxRectangle width="30" height="30" as="alternateBounds" />
          </mxGeometry>
        </mxCell>
        <mxCell id="ElKn7YEhaDQzIZ9FbB-I-159" value="date" style="shape=partialRectangle;connectable=0;fillColor=none;top=0;left=0;bottom=0;right=0;align=left;spacingLeft=6;overflow=hidden;whiteSpace=wrap;html=1;" vertex="1" parent="ElKn7YEhaDQzIZ9FbB-I-157">
          <mxGeometry x="30" width="90" height="30" as="geometry">
            <mxRectangle width="90" height="30" as="alternateBounds" />
          </mxGeometry>
        </mxCell>
        <mxCell id="ElKn7YEhaDQzIZ9FbB-I-160" value="" style="shape=tableRow;horizontal=0;startSize=0;swimlaneHead=0;swimlaneBody=0;fillColor=none;collapsible=0;dropTarget=0;points=[[0,0.5],[1,0.5]];portConstraint=eastwest;top=0;left=0;right=0;bottom=0;" vertex="1" parent="ElKn7YEhaDQzIZ9FbB-I-150">
          <mxGeometry y="120" width="120" height="30" as="geometry" />
        </mxCell>
        <mxCell id="ElKn7YEhaDQzIZ9FbB-I-161" value="text" style="shape=partialRectangle;connectable=0;fillColor=none;top=0;left=0;bottom=0;right=0;editable=1;overflow=hidden;whiteSpace=wrap;html=1;" vertex="1" parent="ElKn7YEhaDQzIZ9FbB-I-160">
          <mxGeometry width="30" height="30" as="geometry">
            <mxRectangle width="30" height="30" as="alternateBounds" />
          </mxGeometry>
        </mxCell>
        <mxCell id="ElKn7YEhaDQzIZ9FbB-I-162" value="status" style="shape=partialRectangle;connectable=0;fillColor=none;top=0;left=0;bottom=0;right=0;align=left;spacingLeft=6;overflow=hidden;whiteSpace=wrap;html=1;" vertex="1" parent="ElKn7YEhaDQzIZ9FbB-I-160">
          <mxGeometry x="30" width="90" height="30" as="geometry">
            <mxRectangle width="90" height="30" as="alternateBounds" />
          </mxGeometry>
        </mxCell>
        <mxCell id="ElKn7YEhaDQzIZ9FbB-I-163" value="make" style="shape=rhombus;perimeter=rhombusPerimeter;whiteSpace=wrap;html=1;align=center;fillColor=#d5e8d4;strokeColor=#82b366;" vertex="1" parent="ElKn7YEhaDQzIZ9FbB-I-1">
          <mxGeometry x="650" y="155" width="120" height="60" as="geometry" />
        </mxCell>
        <mxCell id="ElKn7YEhaDQzIZ9FbB-I-164" value="make" style="shape=rhombus;perimeter=rhombusPerimeter;whiteSpace=wrap;html=1;align=center;fillColor=#d5e8d4;strokeColor=#82b366;" vertex="1" parent="ElKn7YEhaDQzIZ9FbB-I-1">
          <mxGeometry x="650" y="-50" width="120" height="60" as="geometry" />
        </mxCell>
        <mxCell id="ElKn7YEhaDQzIZ9FbB-I-165" value="make" style="shape=rhombus;perimeter=rhombusPerimeter;whiteSpace=wrap;html=1;align=center;fillColor=#d5e8d4;strokeColor=#82b366;" vertex="1" parent="ElKn7YEhaDQzIZ9FbB-I-1">
          <mxGeometry x="1150" y="-50" width="120" height="60" as="geometry" />
        </mxCell>
        <mxCell id="ElKn7YEhaDQzIZ9FbB-I-166" value="" style="endArrow=none;html=1;rounded=0;exitX=0;exitY=0.5;exitDx=0;exitDy=0;spacingLeft=9;entryX=1;entryY=0.5;entryDx=0;entryDy=0;" edge="1" parent="ElKn7YEhaDQzIZ9FbB-I-1" source="ElKn7YEhaDQzIZ9FbB-I-163" target="ElKn7YEhaDQzIZ9FbB-I-25">
          <mxGeometry width="50" height="50" relative="1" as="geometry">
            <mxPoint x="830" y="295" as="sourcePoint" />
            <mxPoint x="580" y="190" as="targetPoint" />
          </mxGeometry>
        </mxCell>
        <mxCell id="ElKn7YEhaDQzIZ9FbB-I-167" value="1,1" style="edgeLabel;html=1;align=center;verticalAlign=middle;resizable=0;points=[];fontStyle=1;fontSize=14;" vertex="1" connectable="0" parent="ElKn7YEhaDQzIZ9FbB-I-166">
          <mxGeometry x="0.0678" relative="1" as="geometry">
            <mxPoint as="offset" />
          </mxGeometry>
        </mxCell>
        <mxCell id="ElKn7YEhaDQzIZ9FbB-I-168" value="" style="endArrow=none;html=1;rounded=0;exitX=0;exitY=0.5;exitDx=0;exitDy=0;entryX=1;entryY=0.5;entryDx=0;entryDy=0;spacingLeft=9;" edge="1" parent="ElKn7YEhaDQzIZ9FbB-I-1" source="ElKn7YEhaDQzIZ9FbB-I-154">
          <mxGeometry width="50" height="50" relative="1" as="geometry">
            <mxPoint x="980" y="650" as="sourcePoint" />
            <mxPoint x="1180" y="625.0000000000002" as="targetPoint" />
          </mxGeometry>
        </mxCell>
        <mxCell id="ElKn7YEhaDQzIZ9FbB-I-169" value="1,N" style="edgeLabel;html=1;align=center;verticalAlign=middle;resizable=0;points=[];fontStyle=1;fontSize=14;" vertex="1" connectable="0" parent="ElKn7YEhaDQzIZ9FbB-I-168">
          <mxGeometry x="0.0678" relative="1" as="geometry">
            <mxPoint as="offset" />
          </mxGeometry>
        </mxCell>
        <mxCell id="ElKn7YEhaDQzIZ9FbB-I-170" value="" style="endArrow=none;html=1;rounded=0;exitX=0;exitY=0.5;exitDx=0;exitDy=0;entryX=1;entryY=0.5;entryDx=0;entryDy=0;spacingLeft=9;" edge="1" parent="ElKn7YEhaDQzIZ9FbB-I-1" target="ElKn7YEhaDQzIZ9FbB-I-154">
          <mxGeometry width="50" height="50" relative="1" as="geometry">
            <mxPoint x="1560" y="625.0000000000002" as="sourcePoint" />
            <mxPoint x="880" y="660" as="targetPoint" />
          </mxGeometry>
        </mxCell>
        <mxCell id="ElKn7YEhaDQzIZ9FbB-I-171" value="0,1" style="edgeLabel;html=1;align=center;verticalAlign=middle;resizable=0;points=[];fontStyle=1;fontSize=14;" vertex="1" connectable="0" parent="ElKn7YEhaDQzIZ9FbB-I-170">
          <mxGeometry x="0.0678" relative="1" as="geometry">
            <mxPoint as="offset" />
          </mxGeometry>
        </mxCell>
        <mxCell id="ElKn7YEhaDQzIZ9FbB-I-172" value="" style="endArrow=none;html=1;rounded=0;exitX=0;exitY=0.5;exitDx=0;exitDy=0;spacingLeft=9;" edge="1" parent="ElKn7YEhaDQzIZ9FbB-I-1" source="ElKn7YEhaDQzIZ9FbB-I-92">
          <mxGeometry width="50" height="50" relative="1" as="geometry">
            <mxPoint x="590" y="230" as="sourcePoint" />
            <mxPoint x="780" y="190" as="targetPoint" />
          </mxGeometry>
        </mxCell>
        <mxCell id="ElKn7YEhaDQzIZ9FbB-I-173" value="1,N" style="edgeLabel;html=1;align=center;verticalAlign=middle;resizable=0;points=[];fontStyle=1;fontSize=14;" vertex="1" connectable="0" parent="ElKn7YEhaDQzIZ9FbB-I-172">
          <mxGeometry x="0.0678" relative="1" as="geometry">
            <mxPoint as="offset" />
          </mxGeometry>
        </mxCell>
        <mxCell id="ElKn7YEhaDQzIZ9FbB-I-174" value="" style="endArrow=none;html=1;rounded=0;spacingLeft=9;exitX=0;exitY=1;exitDx=0;exitDy=0;entryX=0.75;entryY=0;entryDx=0;entryDy=0;" edge="1" parent="ElKn7YEhaDQzIZ9FbB-I-1" source="ElKn7YEhaDQzIZ9FbB-I-164" target="ElKn7YEhaDQzIZ9FbB-I-21">
          <mxGeometry width="50" height="50" relative="1" as="geometry">
            <mxPoint x="520" y="200" as="sourcePoint" />
            <mxPoint x="520" y="60" as="targetPoint" />
          </mxGeometry>
        </mxCell>
        <mxCell id="ElKn7YEhaDQzIZ9FbB-I-175" value="0,N" style="edgeLabel;html=1;align=center;verticalAlign=middle;resizable=0;points=[];fontStyle=1;fontSize=14;" vertex="1" connectable="0" parent="ElKn7YEhaDQzIZ9FbB-I-174">
          <mxGeometry x="0.0678" relative="1" as="geometry">
            <mxPoint as="offset" />
          </mxGeometry>
        </mxCell>
        <mxCell id="ElKn7YEhaDQzIZ9FbB-I-176" value="" style="endArrow=none;html=1;rounded=0;entryX=1;entryY=0;entryDx=0;entryDy=0;spacingLeft=9;exitX=0;exitY=0.5;exitDx=0;exitDy=0;" edge="1" parent="ElKn7YEhaDQzIZ9FbB-I-1" source="ElKn7YEhaDQzIZ9FbB-I-141" target="ElKn7YEhaDQzIZ9FbB-I-164">
          <mxGeometry width="50" height="50" relative="1" as="geometry">
            <mxPoint x="730" y="-140" as="sourcePoint" />
            <mxPoint x="460" y="210" as="targetPoint" />
          </mxGeometry>
        </mxCell>
        <mxCell id="ElKn7YEhaDQzIZ9FbB-I-177" value="1,1" style="edgeLabel;html=1;align=center;verticalAlign=middle;resizable=0;points=[];fontStyle=1;fontSize=14;" vertex="1" connectable="0" parent="ElKn7YEhaDQzIZ9FbB-I-176">
          <mxGeometry x="0.0678" relative="1" as="geometry">
            <mxPoint as="offset" />
          </mxGeometry>
        </mxCell>
        <mxCell id="ElKn7YEhaDQzIZ9FbB-I-178" value="" style="endArrow=none;html=1;rounded=0;entryX=0.25;entryY=0;entryDx=0;entryDy=0;spacingLeft=9;exitX=1;exitY=1;exitDx=0;exitDy=0;" edge="1" parent="ElKn7YEhaDQzIZ9FbB-I-1" source="ElKn7YEhaDQzIZ9FbB-I-165" target="ElKn7YEhaDQzIZ9FbB-I-88">
          <mxGeometry width="50" height="50" relative="1" as="geometry">
            <mxPoint x="1240" y="15" as="sourcePoint" />
            <mxPoint x="1150" y="100" as="targetPoint" />
          </mxGeometry>
        </mxCell>
        <mxCell id="ElKn7YEhaDQzIZ9FbB-I-179" value="0,N" style="edgeLabel;html=1;align=center;verticalAlign=middle;resizable=0;points=[];fontStyle=1;fontSize=14;" vertex="1" connectable="0" parent="ElKn7YEhaDQzIZ9FbB-I-178">
          <mxGeometry x="0.0678" relative="1" as="geometry">
            <mxPoint as="offset" />
          </mxGeometry>
        </mxCell>
        <mxCell id="ElKn7YEhaDQzIZ9FbB-I-180" value="" style="endArrow=none;html=1;rounded=0;entryX=0;entryY=0;entryDx=0;entryDy=0;spacingLeft=9;exitX=1;exitY=0.5;exitDx=0;exitDy=0;" edge="1" parent="ElKn7YEhaDQzIZ9FbB-I-1" source="ElKn7YEhaDQzIZ9FbB-I-141" target="ElKn7YEhaDQzIZ9FbB-I-165">
          <mxGeometry width="50" height="50" relative="1" as="geometry">
            <mxPoint x="1040" y="-170" as="sourcePoint" />
            <mxPoint x="990" y="-15" as="targetPoint" />
          </mxGeometry>
        </mxCell>
        <mxCell id="ElKn7YEhaDQzIZ9FbB-I-181" value="1,N" style="edgeLabel;html=1;align=center;verticalAlign=middle;resizable=0;points=[];fontStyle=1;fontSize=14;" vertex="1" connectable="0" parent="ElKn7YEhaDQzIZ9FbB-I-180">
          <mxGeometry x="0.0678" relative="1" as="geometry">
            <mxPoint as="offset" />
          </mxGeometry>
        </mxCell>
        <mxCell id="ElKn7YEhaDQzIZ9FbB-I-182" value="" style="endArrow=none;html=1;rounded=0;spacingLeft=9;exitX=0.5;exitY=0;exitDx=0;exitDy=0;entryX=0.497;entryY=1.008;entryDx=0;entryDy=0;entryPerimeter=0;" edge="1" parent="ElKn7YEhaDQzIZ9FbB-I-1" target="ElKn7YEhaDQzIZ9FbB-I-160">
          <mxGeometry width="50" height="50" relative="1" as="geometry">
            <mxPoint x="1370" y="800" as="sourcePoint" />
            <mxPoint x="1370" y="710" as="targetPoint" />
          </mxGeometry>
        </mxCell>
        <mxCell id="ElKn7YEhaDQzIZ9FbB-I-183" value="1,1" style="edgeLabel;html=1;align=center;verticalAlign=middle;resizable=0;points=[];fontStyle=1;fontSize=14;" vertex="1" connectable="0" parent="ElKn7YEhaDQzIZ9FbB-I-182">
          <mxGeometry x="0.0678" relative="1" as="geometry">
            <mxPoint as="offset" />
          </mxGeometry>
        </mxCell>
        <mxCell id="ElKn7YEhaDQzIZ9FbB-I-184" value="" style="endArrow=none;html=1;rounded=0;entryX=1;entryY=0.5;entryDx=0;entryDy=0;spacingLeft=9;exitX=0.5;exitY=0;exitDx=0;exitDy=0;" edge="1" parent="ElKn7YEhaDQzIZ9FbB-I-1" source="ElKn7YEhaDQzIZ9FbB-I-69" target="ElKn7YEhaDQzIZ9FbB-I-163">
          <mxGeometry width="50" height="50" relative="1" as="geometry">
            <mxPoint x="1072" y="574" as="sourcePoint" />
            <mxPoint x="960" y="420" as="targetPoint" />
          </mxGeometry>
        </mxCell>
        <mxCell id="ElKn7YEhaDQzIZ9FbB-I-185" value="1,1" style="edgeLabel;html=1;align=center;verticalAlign=middle;resizable=0;points=[];fontStyle=1;fontSize=14;" vertex="1" connectable="0" parent="ElKn7YEhaDQzIZ9FbB-I-184">
          <mxGeometry x="0.0678" relative="1" as="geometry">
            <mxPoint as="offset" />
          </mxGeometry>
        </mxCell>
        <mxCell id="ElKn7YEhaDQzIZ9FbB-I-186" value="make" style="shape=rhombus;perimeter=rhombusPerimeter;whiteSpace=wrap;html=1;align=center;fillColor=#d5e8d4;strokeColor=#82b366;" vertex="1" parent="ElKn7YEhaDQzIZ9FbB-I-1">
          <mxGeometry x="1400" y="360" width="120" height="60" as="geometry" />
        </mxCell>
        <mxCell id="ElKn7YEhaDQzIZ9FbB-I-187" value="" style="endArrow=none;html=1;rounded=0;spacingLeft=9;entryX=1;entryY=0;entryDx=0;entryDy=0;exitX=0;exitY=0.5;exitDx=0;exitDy=0;" edge="1" parent="ElKn7YEhaDQzIZ9FbB-I-1" source="ElKn7YEhaDQzIZ9FbB-I-128" target="ElKn7YEhaDQzIZ9FbB-I-186">
          <mxGeometry width="50" height="50" relative="1" as="geometry">
            <mxPoint x="1740" y="280" as="sourcePoint" />
            <mxPoint x="1810" y="350" as="targetPoint" />
          </mxGeometry>
        </mxCell>
        <mxCell id="ElKn7YEhaDQzIZ9FbB-I-188" value="1,M" style="edgeLabel;html=1;align=center;verticalAlign=middle;resizable=0;points=[];fontStyle=1;fontSize=14;" vertex="1" connectable="0" parent="ElKn7YEhaDQzIZ9FbB-I-187">
          <mxGeometry x="0.0678" relative="1" as="geometry">
            <mxPoint as="offset" />
          </mxGeometry>
        </mxCell>
        <mxCell id="ElKn7YEhaDQzIZ9FbB-I-189" value="" style="endArrow=none;html=1;rounded=0;spacingLeft=9;entryX=1;entryY=0.5;entryDx=0;entryDy=0;exitX=0;exitY=0;exitDx=0;exitDy=0;" edge="1" parent="ElKn7YEhaDQzIZ9FbB-I-1" target="ElKn7YEhaDQzIZ9FbB-I-160">
          <mxGeometry width="50" height="50" relative="1" as="geometry">
            <mxPoint x="1840" y="815" as="sourcePoint" />
            <mxPoint x="1990" y="865" as="targetPoint" />
          </mxGeometry>
        </mxCell>
        <mxCell id="ElKn7YEhaDQzIZ9FbB-I-190" value="1,N" style="edgeLabel;html=1;align=center;verticalAlign=middle;resizable=0;points=[];fontStyle=1;fontSize=14;" vertex="1" connectable="0" parent="ElKn7YEhaDQzIZ9FbB-I-189">
          <mxGeometry x="0.0678" relative="1" as="geometry">
            <mxPoint as="offset" />
          </mxGeometry>
        </mxCell>
        <mxCell id="ElKn7YEhaDQzIZ9FbB-I-191" value="N,M" style="text;html=1;align=center;verticalAlign=middle;resizable=0;points=[];autosize=1;strokeColor=none;fillColor=none;fontStyle=1;fontSize=14;" vertex="1" parent="ElKn7YEhaDQzIZ9FbB-I-1">
          <mxGeometry x="185" y="130" width="50" height="30" as="geometry" />
        </mxCell>
        <mxCell id="ElKn7YEhaDQzIZ9FbB-I-192" value="n,m" style="text;html=1;align=center;verticalAlign=middle;resizable=0;points=[];autosize=1;strokeColor=none;fillColor=none;fontStyle=1;fontSize=14;" vertex="1" parent="ElKn7YEhaDQzIZ9FbB-I-1">
          <mxGeometry x="685" y="130" width="50" height="30" as="geometry" />
        </mxCell>
        <mxCell id="ElKn7YEhaDQzIZ9FbB-I-193" value="1,N" style="text;html=1;align=center;verticalAlign=middle;resizable=0;points=[];autosize=1;strokeColor=none;fillColor=none;fontStyle=1;fontSize=14;" vertex="1" parent="ElKn7YEhaDQzIZ9FbB-I-1">
          <mxGeometry x="515" y="375" width="50" height="30" as="geometry" />
        </mxCell>
        <mxCell id="ElKn7YEhaDQzIZ9FbB-I-194" value="1,1" style="text;html=1;align=center;verticalAlign=middle;resizable=0;points=[];autosize=1;strokeColor=none;fillColor=none;fontStyle=1;fontSize=14;" vertex="1" parent="ElKn7YEhaDQzIZ9FbB-I-1">
          <mxGeometry x="1020" y="375" width="40" height="30" as="geometry" />
        </mxCell>
        <mxCell id="ElKn7YEhaDQzIZ9FbB-I-195" value="1,N" style="text;html=1;align=center;verticalAlign=middle;resizable=0;points=[];autosize=1;strokeColor=none;fillColor=none;fontStyle=1;fontSize=14;" vertex="1" parent="ElKn7YEhaDQzIZ9FbB-I-1">
          <mxGeometry x="645" y="-70" width="50" height="30" as="geometry" />
        </mxCell>
        <mxCell id="ElKn7YEhaDQzIZ9FbB-I-196" value="N,M" style="text;html=1;align=center;verticalAlign=middle;resizable=0;points=[];autosize=1;strokeColor=none;fillColor=none;fontStyle=1;fontSize=14;" vertex="1" parent="ElKn7YEhaDQzIZ9FbB-I-1">
          <mxGeometry x="1225" y="-70" width="50" height="30" as="geometry" />
        </mxCell>
        <mxCell id="ElKn7YEhaDQzIZ9FbB-I-197" value="N,M" style="text;html=1;align=center;verticalAlign=middle;resizable=0;points=[];autosize=1;strokeColor=none;fillColor=none;fontStyle=1;fontSize=14;" vertex="1" parent="ElKn7YEhaDQzIZ9FbB-I-1">
          <mxGeometry x="1685" y="130" width="50" height="30" as="geometry" />
        </mxCell>
        <mxCell id="ElKn7YEhaDQzIZ9FbB-I-198" value="N,M" style="text;html=1;align=center;verticalAlign=middle;resizable=0;points=[];autosize=1;strokeColor=none;fillColor=none;fontStyle=1;fontSize=14;" vertex="1" parent="ElKn7YEhaDQzIZ9FbB-I-1">
          <mxGeometry x="1435" y="330" width="50" height="30" as="geometry" />
        </mxCell>
        <mxCell id="ElKn7YEhaDQzIZ9FbB-I-199" value="1,N" style="text;html=1;align=center;verticalAlign=middle;resizable=0;points=[];autosize=1;strokeColor=none;fillColor=none;fontStyle=1;fontSize=14;" vertex="1" parent="ElKn7YEhaDQzIZ9FbB-I-1">
          <mxGeometry x="1515" y="-35" width="50" height="30" as="geometry" />
        </mxCell>
        <mxCell id="ElKn7YEhaDQzIZ9FbB-I-200" value="USER" style="rounded=0;whiteSpace=wrap;html=1;" vertex="1" parent="ElKn7YEhaDQzIZ9FbB-I-1">
          <mxGeometry x="-20" y="-5" width="120" height="60" as="geometry" />
        </mxCell>
        <mxCell id="ElKn7YEhaDQzIZ9FbB-I-201" style="edgeStyle=orthogonalEdgeStyle;rounded=0;orthogonalLoop=1;jettySize=auto;html=1;entryX=0.75;entryY=0;entryDx=0;entryDy=0;endArrow=none;endFill=0;" edge="1" parent="ElKn7YEhaDQzIZ9FbB-I-1" source="ElKn7YEhaDQzIZ9FbB-I-202" target="ElKn7YEhaDQzIZ9FbB-I-200">
          <mxGeometry relative="1" as="geometry" />
        </mxCell>
        <mxCell id="ElKn7YEhaDQzIZ9FbB-I-202" value="texi" style="ellipse;whiteSpace=wrap;html=1;" vertex="1" parent="ElKn7YEhaDQzIZ9FbB-I-1">
          <mxGeometry x="150" y="-80" width="70" height="20" as="geometry" />
        </mxCell>
      </root>
    </mxGraphModel>
  </diagram>
</mxfile>
